<?xml version="1.0" encoding="UTF-8"?>
<svg width="20px" height="15px" viewBox="0 0 20 15" version="1.1" xmlns="http://www.w3.org/2000/svg" xmlns:xlink="http://www.w3.org/1999/xlink">
    <g id="B端移动端v1.0" stroke="none" stroke-width="1" fill="none" fill-rule="evenodd">
        <g id="Setting" transform="translate(-405.000000, -281.000000)" stroke="#FFFFFF" stroke-width="2">
            <g id="编组" transform="translate(395.000000, 268.000000)">
                <g id="Camera" transform="translate(10.000000, 13.000000)">
                    <path d="M0,3 C0,2.44772 0.44772,2 1,2 L4.58579,2 C4.851,2 5.10536,1.89464 5.29289,1.70711 L6.70711,0.29289 C6.89464,0.10536 7.149,0 7.41421,0 L12.5858,0 C12.851,0 13.1054,0.10536 13.2929,0.29289 L14.7071,1.70711 C14.8946,1.89464 15.149,2 15.4142,2 L19,2 C19.5523,2 20,2.44772 20,3 L20,14 C20,14.5523 19.5523,15 19,15 L1,15 C0.44772,15 0,14.5523 0,14 L0,3 Z" id="路径"></path>
                    <circle id="椭圆形" cx="10" cy="8" r="3"></circle>
                </g>
            </g>
        </g>
    </g>
</svg>