<?xml version="1.0" encoding="UTF-8"?>
<svg width="52px" height="52px" viewBox="0 0 52 52" version="1.1" xmlns="http://www.w3.org/2000/svg" xmlns:xlink="http://www.w3.org/1999/xlink">
    <g id="B端移动端v1.0" stroke="none" stroke-width="1" fill="none" fill-rule="evenodd">
        <g id="Setting" transform="translate(-32.000000, -513.000000)" fill="#000000">
            <g id="编组-2" transform="translate(0.000000, 492.000000)">
                <g id="bell" transform="translate(32.000000, 21.000000)">
                    <circle id="椭圆形" fill-opacity="0.102163462" cx="26" cy="26" r="26"></circle>
                    <path d="M29.3213684,11.4832438 C27.0903407,10.8389187 24.7156678,10.8389187 22.4847337,11.4832438 C18.1165315,12.7448491 15.1199064,16.656777 15.1199064,21.0976522 L15.1199064,25.3163406 C15.1199064,26.0499118 14.9708901,26.7761776 14.6814608,27.4532851 L14.3999319,28.111825 C14.0271571,28.9838919 13.8760018,29.9941502 14.1156706,30.9589028 C14.3660035,31.9665738 15.0370294,32.8677096 16.1485149,33.3637072 C17.0169279,33.751191 18.1590162,34.1231512 19.657641,34.4054695 L19.657641,34.9122728 C19.657641,38.2743723 22.4538188,41 25.9030823,41 C29.3522834,41 32.1485235,38.2743723 32.1485235,34.9122728 L32.1485235,34.4053173 C34.1540909,34.027726 35.5221548,33.4892666 36.4497589,32.9669396 C38.2117541,31.9747922 38.2262747,30.0305244 37.6922895,28.7811706 L37.5651948,28.4837851 C36.9849933,27.1263741 36.6861489,25.670342 36.6861489,24.1998515 L36.6861489,21.0976522 C36.6861489,16.656777 33.6895862,12.7448491 29.3213684,11.4832438 Z M25.8551485,34.9122728 C25.8710744,34.9122728 25.8870003,34.9122728 25.9030823,34.9122728 C25.9190082,34.9122728 25.934934,34.9122728 25.951016,34.9122728 L29.0258029,34.9122728 C29.0258029,36.5933987 27.6277609,37.9561364 25.9030823,37.9561364 C24.1784037,37.9561364 22.7803616,36.5933987 22.7803616,34.9122728 L25.8551485,34.9122728 Z" id="形状" fill-opacity="0.26"></path>
                </g>
            </g>
        </g>
    </g>
</svg>