<?xml version="1.0" encoding="UTF-8"?>
<svg width="52px" height="52px" viewBox="0 0 52 52" version="1.1" xmlns="http://www.w3.org/2000/svg" xmlns:xlink="http://www.w3.org/1999/xlink">
    <g id="B端移动端v1.0" stroke="none" stroke-width="1" fill="none" fill-rule="evenodd">
        <g id="Setting" transform="translate(-32.000000, -765.000000)" fill="#000000">
            <g id="编组-3" transform="translate(0.000000, 744.000000)">
                <g id="sign-out" transform="translate(32.000000, 21.000000)">
                    <circle id="椭圆形" fill-opacity="0.102518575" cx="26" cy="26" r="26"></circle>
                    <g id="Upload,-export,-share,-send" transform="translate(26.000000, 26.000000) rotate(-270.000000) translate(-26.000000, -26.000000) translate(11.000000, 11.000000)" fill-opacity="0.26" fill-rule="nonzero">
                        <path d="M13.6741875,0.54916875 C14.406375,-0.18305625 15.593625,-0.18305625 16.3258125,0.54916875 L21.9508125,6.17416875 C22.683,6.9064125 22.683,8.0935875 21.9508125,8.82583125 C21.218625,9.55805625 20.031375,9.55805625 19.2991875,8.82583125 L16.875,6.40164375 L16.875,20.625 C16.875,21.6605625 16.0355625,22.5 15,22.5 C13.9644375,22.5 13.125,21.6605625 13.125,20.625 L13.125,6.40164375 L10.7008313,8.82583125 C9.9685875,9.55805625 8.7814125,9.55805625 8.04916875,8.82583125 C7.31694375,8.0935875 7.31694375,6.9064125 8.04916875,6.17416875 L13.6741875,0.54916875 Z" id="路径"></path>
                        <path d="M3.75,18.75 C3.75,17.7144375 2.910525,16.875 1.875,16.875 C0.839475,16.875 0,17.7144375 0,18.75 L0,20.625 C0,25.802625 4.1973375,30 9.375,30 L20.625,30 C25.802625,30 30,25.802625 30,20.625 L30,18.75 C30,17.7144375 29.1605625,16.875 28.125,16.875 C27.0894375,16.875 26.25,17.7144375 26.25,18.75 L26.25,20.625 C26.25,23.7316875 23.7316875,26.25 20.625,26.25 L9.375,26.25 C6.26840625,26.25 3.75,23.7316875 3.75,20.625 L3.75,18.75 Z" id="路径"></path>
                    </g>
                </g>
            </g>
        </g>
    </g>
</svg>