<?xml version="1.0" encoding="UTF-8"?>
<svg width="52px" height="52px" viewBox="0 0 52 52" version="1.1" xmlns="http://www.w3.org/2000/svg" xmlns:xlink="http://www.w3.org/1999/xlink">
    <g id="B端移动端v1.0" stroke="none" stroke-width="1" fill="none" fill-rule="evenodd">
        <g id="Setting" transform="translate(-32.000000, -607.000000)" fill="#000000">
            <g id="编组-2" transform="translate(0.000000, 492.000000)">
                <g id="star" transform="translate(32.000000, 115.000000)">
                    <circle id="椭圆形" fill-opacity="0.102518575" cx="26" cy="26" r="26"></circle>
                    <path d="M23.049207,12.9071143 C24.2562582,10.3642952 27.7437617,10.3642952 28.950813,12.9071143 L31.0368651,17.3017762 C31.5161156,18.3115328 32.4426665,19.0114189 33.5144176,19.1733292 L38.1789723,19.8780453 C40.878075,20.2858059 41.9556761,23.7342664 40.0026741,25.7136695 L36.6273707,29.1344249 C35.8518699,29.9204261 35.4980196,31.0527779 35.6810198,32.1626297 L36.4778206,36.9927873 C36.938921,39.7877417 34.1174182,41.9189451 31.7033157,40.599393 L27.5312115,38.3189394 C26.5725606,37.7949886 25.4274594,37.7949886 24.4688084,38.3189394 L20.2966442,40.599393 C17.8825868,41.9189451 15.0611289,39.7877417 15.5221844,36.9929373 L16.3189852,32.1626297 C16.5020604,31.0527779 16.148165,29.9204261 15.3726193,29.1344249 L11.9973158,25.7136695 C10.0442989,23.7342664 11.12199,20.2858059 13.8209877,19.8780453 L18.4855574,19.1733292 C19.5573385,19.0114189 20.4838594,18.3115328 20.9631699,17.3017762 L23.049207,12.9071143 Z" id="路径" fill-opacity="0.260544143" fill-rule="nonzero"></path>
                </g>
            </g>
        </g>
    </g>
</svg>