<?xml version="1.0" encoding="UTF-8"?>
<svg width="30px" height="30px" viewBox="0 0 30 30" version="1.1" xmlns="http://www.w3.org/2000/svg" xmlns:xlink="http://www.w3.org/1999/xlink">
    <title>切片</title>
    <g id="B端移动端v1.0" stroke="none" stroke-width="1" fill="none" fill-rule="evenodd">
        <g id="用户信息详情页面" transform="translate(-64.000000, -602.000000)">
            <g id="编组-5" transform="translate(32.000000, 426.000000)">
                <g id="Email" transform="translate(32.000000, 176.000000)">
                    <circle id="椭圆形" fill-opacity="0.0768957605" fill="#000000" cx="15" cy="15" r="15"></circle>
                    <g id="编组" transform="translate(5.000000, 7.000000)">
                        <path d="M0,2.66666667 C0,1.19391111 1.22104545,0 2.72727273,0 L17.2727273,0 C18.779,0 20,1.19391111 20,2.66666667 L20,13.3333333 C20,14.8061333 18.779,16 17.2727273,16 L2.72727273,16 C1.22104545,16 0,14.8061333 0,13.3333333 L0,2.66666667 Z" id="路径" fill-opacity="0.195968094" fill="#000000" fill-rule="nonzero"></path>
                        <path d="M2.90950541,3.93752935 C3.27991014,3.53955741 3.94049336,3.48579161 4.38497484,3.81742865 L9.32931281,7.50658579 C9.71787268,7.79642582 10.2821174,7.79642582 10.6706772,7.50658579 L15.6149942,3.81742865 C16.0594967,3.48579161 16.7201218,3.53955741 17.0904532,3.93752935 C17.4608893,4.3355013 17.4008611,4.92696257 16.9563587,5.25860898 L12.0119369,8.94771922 C10.8464668,9.81742693 9.15352325,9.81742693 7.98794839,8.94771922 L3.04364186,5.25860898 C2.59916037,4.92696257 2.53911116,4.3355013 2.90950541,3.93752935 Z" id="路径" fill-opacity="0.79925153" fill="#FFFFFF"></path>
                    </g>
                </g>
            </g>
        </g>
    </g>
</svg>