<?xml version="1.0" encoding="UTF-8"?>
<svg width="30px" height="30px" viewBox="0 0 30 30" version="1.1" xmlns="http://www.w3.org/2000/svg" xmlns:xlink="http://www.w3.org/1999/xlink">
    <title>切片</title>
    <g id="B端移动端v1.0" stroke="none" stroke-width="1" fill="none" fill-rule="evenodd">
        <g id="用户信息详情页面" transform="translate(-64.000000, -890.000000)">
            <g id="编组-5" transform="translate(32.000000, 426.000000)">
                <g id="Last-seen-time" transform="translate(32.000000, 464.000000)">
                    <circle id="椭圆形" fill-opacity="0.0768957605" fill="#000000" cx="15" cy="15" r="15"></circle>
                    <g id="编组" transform="translate(6.000000, 6.000000)">
                        <path d="M3.6,0.9 C3.6,0.402948 4.002948,0 4.5,0 C4.997052,0 5.4,0.402948 5.4,0.9 L5.4,1.8 L12.6,1.8 L12.6,0.9 C12.6,0.402948 13.00293,0 13.5,0 C13.99707,0 14.4,0.402948 14.4,0.9 L14.4,1.8 L15.3,1.8 C16.79121,1.8 18,3.008835 18,4.5 L18,15.3 C18,16.79121 16.79121,18 15.3,18 L2.7,18 C1.208835,18 0,16.79121 0,15.3 L0,4.5 C0,3.008835 1.208835,1.8 2.7,1.8 L3.6,1.8 L3.6,0.9 Z" id="路径" fill-opacity="0.204135708" fill="#000000"></path>
                        <path d="M7.2,9 C6.702948,9 6.3,9.40293 6.3,9.9 C6.3,10.39707 6.702948,10.8 7.2,10.8 L13.5,10.8 C13.99707,10.8 14.4,10.39707 14.4,9.9 C14.4,9.40293 13.99707,9 13.5,9 L7.2,9 Z M4.5,12.6 C4.002948,12.6 3.6,13.00293 3.6,13.5 C3.6,13.99707 4.002948,14.4 4.5,14.4 L9.9,14.4 C10.39707,14.4 10.8,13.99707 10.8,13.5 C10.8,13.00293 10.39707,12.6 9.9,12.6 L4.5,12.6 Z" id="形状" fill-opacity="0.802283654" fill="#FFFFFF"></path>
                    </g>
                </g>
            </g>
        </g>
    </g>
</svg>