<?xml version="1.0" encoding="UTF-8"?>
<svg width="30px" height="30px" viewBox="0 0 30 30" version="1.1" xmlns="http://www.w3.org/2000/svg" xmlns:xlink="http://www.w3.org/1999/xlink">
    <title>切片</title>
    <g id="B端移动端v1.0" stroke="none" stroke-width="1" fill="none" fill-rule="evenodd">
        <g id="用户信息详情页面" transform="translate(-64.000000, -674.000000)" fill="#000000">
            <g id="编组-5" transform="translate(32.000000, 426.000000)">
                <g id="Phone" transform="translate(32.000000, 248.000000)">
                    <circle id="椭圆形" fill-opacity="0.0768957605" cx="15" cy="15" r="15"></circle>
                    <g transform="translate(6.000000, 6.000000)" fill-opacity="0.203835227" fill-rule="nonzero" id="路径">
                        <path d="M17.4663734,15.9929898 L15.7310182,17.7282568 C15.7310182,17.7282568 11.2221008,19.6606531 4.78070816,13.219332 C-1.66066621,6.77792895 0.271745193,2.26895864 0.271745193,2.26895864 L2.00703664,0.533664377 C2.79101638,-0.250316636 4.08760456,-0.158174135 4.75283317,0.728798784 L6.40918189,2.93727645 C6.95318159,3.66261056 6.88105276,4.67758094 6.23993693,5.31868869 L4.78070816,6.77792895 C4.78070816,6.77792895 4.78070816,8.06618405 7.35722329,10.6427125 C9.93383863,13.219332 11.2221008,13.219332 11.2221008,13.219332 L12.6813477,11.7600826 C13.3223816,11.1189567 14.3373594,11.0468095 15.062747,11.5908283 L17.2711573,13.2472071 C18.158147,13.9123821 18.2503349,15.209027 17.4663734,15.9929898 Z"></path>
                        <path d="M2.00703664,0.533700815 L1.56001642,0.980721757 L5.42483922,6.13383328 L6.23993693,5.31873424 C6.88104365,4.67761738 6.95318159,3.66265611 6.40918189,2.937322 L4.75282406,0.728844331 C4.08759545,-0.158128588 2.79101638,-0.250271089 2.00703664,0.533700815 Z"></path>
                        <path d="M17.4662823,15.9929898 L17.0192803,16.4399926 L11.8662318,12.5751999 L12.6812566,11.7600826 C13.3223816,11.1189567 14.3373594,11.0468095 15.0626559,11.5908283 L17.2711573,13.2472071 C18.158147,13.9124732 18.2502438,15.209027 17.4662823,15.9929898 Z"></path>
                    </g>
                </g>
            </g>
        </g>
    </g>
</svg>