<?xml version="1.0" encoding="UTF-8"?>
<svg width="30px" height="30px" viewBox="0 0 30 30" version="1.1" xmlns="http://www.w3.org/2000/svg" xmlns:xlink="http://www.w3.org/1999/xlink">
    <title>切片</title>
    <g id="B端移动端v1.0" stroke="none" stroke-width="1" fill="none" fill-rule="evenodd">
        <g id="用户信息详情页面" transform="translate(-64.000000, -962.000000)">
            <g id="编组-5" transform="translate(32.000000, 426.000000)">
                <g id="编组-2" transform="translate(32.000000, 536.000000)">
                    <circle id="椭圆形" fill-opacity="0.0768957605" fill="#000000" cx="15" cy="15" r="15"></circle>
                    <g id="编组" transform="translate(6.000000, 6.000000)" fill-rule="nonzero">
                        <path d="M1.90014,1.07276867 C2.5688,0.358973333 3.59599,0 4.65685,0 L13.3431,0 C14.404,0 15.4312,0.358973333 16.0999,1.07276867 C16.9561,1.98680733 18,4.177524 18,5.2 C18,6.93333333 17,7.8 15,7.8 C13.525,7.8 12.5939,6.85724 12.2067,6.36228667 C12.1142,6.24407333 11.8858,6.24407333 11.7933,6.36228667 C11.4061,6.85724 10.475,7.8 9,7.8 C7.525,7.8 6.59391,6.85724 6.20672,6.36228667 C6.11424,6.24407333 5.88576,6.24407333 5.79328,6.36228667 C5.40609,6.85724 4.47499,7.8 3,7.8 C1,7.8 0,6.93333333 0,5.2 C0,4.177524 1.04391,1.98680733 1.90014,1.07276867 Z" id="路径" fill-opacity="0.201240166" fill="#000000"></path>
                        <g id="Shop-name备份" transform="translate(0.999282, 7.238800)">
                            <path d="M4.79399837,0.1023 C4.88647837,-0.0341 5.11495837,-0.0341 5.20743837,0.1023 C5.59462837,0.6734 6.52571837,1.7612 8.00071837,1.7612 C9.47571837,1.7612 10.4068184,0.6734 10.7940184,0.1023 C10.8865184,-0.0341 11.1149184,-0.0341 11.2074184,0.1023 C11.5946184,0.6734 12.5257184,1.7612 14.0007184,1.7612 C14.8460502,1.7612 15.5127356,1.58255352 16.0007744,1.22526057 L16.0007184,7.7612 C16.0007184,9.4181 14.6576184,10.7612 13.0007184,10.7612 L3.00071837,10.7612 C1.34386837,10.7612 0.000718367347,9.4181 0.000718367347,7.7612 L-0.000989142857,1.22405037 C0.487196816,1.58215012 1.15443265,1.7612 2.00071837,1.7612 C3.47570837,1.7612 4.40680837,0.6734 4.79399837,0.1023 Z" id="形状结合" fill-opacity="0.202086976" fill="#000000"></path>
                            <path d="M6.00071837,6.7612 C6.00071837,5.6566 6.89611837,4.7612 8.00071837,4.7612 C9.10531837,4.7612 10.0007184,5.6566 10.0007184,6.7612 L10.0007184,9.7612 C10.0007184,10.3135 9.55301837,10.7612 9.00071837,10.7612 L7.00071837,10.7612 C6.44841837,10.7612 6.00071837,10.3135 6.00071837,9.7612 L6.00071837,6.7612 Z" id="路径" fill-opacity="0.79725743" fill="#FFFFFF"></path>
                        </g>
                    </g>
                </g>
            </g>
        </g>
    </g>
</svg>