<?xml version="1.0" encoding="UTF-8"?>
<svg width="30px" height="30px" viewBox="0 0 30 30" version="1.1" xmlns="http://www.w3.org/2000/svg" xmlns:xlink="http://www.w3.org/1999/xlink">
    <title>切片</title>
    <g id="B端移动端v1.0" stroke="none" stroke-width="1" fill="none" fill-rule="evenodd">
        <g id="用户信息详情页面" transform="translate(-64.000000, -818.000000)" fill="#000000">
            <g id="编组-5" transform="translate(32.000000, 426.000000)">
                <g id="User-Id" transform="translate(32.000000, 392.000000)">
                    <circle id="椭圆形" fill-opacity="0.0768957605" cx="15" cy="15" r="15"></circle>
                    <g id="编组" transform="translate(7.500000, 6.000000)">
                        <path d="M11.6666667,4.09090909 C11.6666667,6.35025273 9.80116667,8.18181818 7.5,8.18181818 C5.19881667,8.18181818 3.33333333,6.35025273 3.33333333,4.09090909 C3.33333333,1.83156545 5.19881667,0 7.5,0 C9.80116667,0 11.6666667,1.83156545 11.6666667,4.09090909 Z" id="路径" fill-opacity="0.19684222" fill-rule="nonzero"></path>
                        <path d="M13.1816667,10.7384727 C12.668,10.1538 11.7856667,10.1839091 11.09575,10.5546273 C10.0281667,11.1283364 8.80291667,11.4545455 7.5,11.4545455 C6.19708333,11.4545455 4.97181667,11.1283364 3.90420833,10.5546273 C3.21430833,10.1839091 2.33200833,10.1538 1.81833333,10.7384727 C0.685183333,12.0284182 0,13.7083909 0,15.5454545 L0,16.3636364 C0,17.2674 0.746191667,18 1.66666667,18 L13.3333333,18 C14.2538333,18 15,17.2674 15,16.3636364 L15,15.5454545 C15,13.7083909 14.3148333,12.0284182 13.1816667,10.7384727 Z" id="路径" fill-opacity="0.202196241"></path>
                    </g>
                </g>
            </g>
        </g>
    </g>
</svg>