<?xml version="1.0" encoding="UTF-8"?>
<svg width="30px" height="30px" viewBox="0 0 30 30" version="1.1" xmlns="http://www.w3.org/2000/svg" xmlns:xlink="http://www.w3.org/1999/xlink">
    <title>切片</title>
    <g id="B端移动端v1.0" stroke="none" stroke-width="1" fill="none" fill-rule="evenodd">
        <g id="用户信息详情页面" transform="translate(-64.000000, -746.000000)">
            <g id="编组-5" transform="translate(32.000000, 426.000000)">
                <g id="Visitor-type" transform="translate(32.000000, 320.000000)">
                    <circle id="椭圆形" fill-opacity="0.0768957605" fill="#000000" cx="15" cy="15" r="15"></circle>
                    <g id="编组" transform="translate(4.000000, 7.000000)">
                        <path d="M21.13569,5.506 C22.2881033,6.9837 22.2881033,9.0163 21.13569,10.494 C19.3047062,12.8417 15.9261623,16 10.9999603,16 C6.07386612,16 2.69531243,12.8417 0.864348229,10.494 C-0.288116076,9.0163 -0.288116076,6.9837 0.864348229,5.506 C2.69531243,3.15826 6.07386612,0 10.9999603,0 C15.9261623,0 19.3047062,3.15826 21.13569,5.506 Z" id="路径" fill-opacity="0.202278191" fill="#000000" fill-rule="nonzero"></path>
                        <path d="M13.25,8 C13.25,9.242675 12.242675,10.25 11,10.25 C9.757325,10.25 8.75,9.242675 8.75,8 C8.75,7.96805 8.750675,7.936325 8.752025,7.9047125 C8.9274125,7.9663625 9.1159625,8 9.3125,8 C10.24445,8 11,7.24445 11,6.3125 C11,6.1159625 10.9663625,5.9274125 10.9047125,5.752025 C10.936325,5.750675 10.96805,5.75 11,5.75 C12.242675,5.75 13.25,6.757325 13.25,8 Z M15.5,8 C15.5,10.4852375 13.4852375,12.5 11,12.5 C8.5147175,12.5 6.5,10.4852375 6.5,8 C6.5,5.5147175 8.5147175,3.5 11,3.5 C13.4852375,3.5 15.5,5.5147175 15.5,8 Z" id="形状" fill-opacity="0.800699301" fill="#FFFFFF"></path>
                    </g>
                </g>
            </g>
        </g>
    </g>
</svg>