<?xml version="1.0" encoding="UTF-8"?>
<svg width="38px" height="38px" viewBox="0 0 38 38" version="1.1" xmlns="http://www.w3.org/2000/svg" xmlns:xlink="http://www.w3.org/1999/xlink">
    <title>切片</title>
    <g id="B端移动端v1.0" stroke="none" stroke-width="1" fill="none" fill-rule="evenodd">
        <g id="会话界面链接失败" transform="translate(-129.000000, -1078.000000)" fill="#FF2222">
            <g id="error" transform="translate(129.000000, 1078.000000)">
                <path d="M19,0 C29.4934102,0 38,8.50658975 38,19 C38,29.4934102 29.4934102,38 19,38 C8.50658975,38 0,29.4934102 0,19 C0,8.50658975 8.50658975,0 19,0 Z M18.9914656,25.3438477 C18.043321,25.3438477 17.2900007,26.0711914 17.2900007,27.0193359 C17.2900007,27.9674805 18.043321,28.6948242 18.9914656,28.6948242 C19.9655867,28.6948242 20.7059187,27.9674805 20.7059187,27.0193359 C20.7059187,26.0711914 19.9655867,25.3438477 18.9914656,25.3438477 Z M20.4461531,7.85791016 L17.5497663,7.85791016 L17.7575788,22.2916016 L20.2383406,22.2916016 L20.4461531,7.85791016 Z" id="图标颜色"></path>
            </g>
        </g>
    </g>
</svg>