<?xml version="1.0" encoding="UTF-8"?>
<svg width="22px" height="22px" viewBox="0 0 22 22" version="1.1" xmlns="http://www.w3.org/2000/svg" xmlns:xlink="http://www.w3.org/1999/xlink">
    <g stroke="none" stroke-width="1" fill="none" fill-rule="evenodd">
        <g transform="translate(-1540.000000, -795.000000)" fill="currentColor">
            <path d="M1560.19213,812.010498 C1559.03047,813.157356 1557.48653,813.793677 1555.839,813.796144 L1555.82173,813.796144 C1555.03003,813.796144 1554.25806,813.648162 1553.52308,813.357131 C1552.76098,813.053769 1552.07533,812.607357 1551.48834,812.027762 L1545.74418,806.350197 C1545.08073,805.694145 1544.71817,804.818586 1544.72064,803.883835 C1544.72311,802.951551 1545.09059,802.075992 1545.75651,801.417474 C1546.42243,800.758955 1547.30539,800.3964 1548.24754,800.393933 L1548.25494,800.393933 C1549.19462,800.393933 1550.07511,800.754022 1550.7361,801.405142 L1555.77734,806.387193 C1555.94505,806.552439 1556.03631,806.771945 1556.03631,807.003783 C1556.03631,807.238087 1555.94505,807.457594 1555.77734,807.620374 C1555.61209,807.78562 1555.39012,807.874409 1555.15582,807.874409 C1554.92151,807.874409 1554.69954,807.783153 1554.53429,807.620374 L1549.49305,802.638323 C1549.16502,802.312763 1548.72354,802.135185 1548.25247,802.135185 L1548.25,802.135185 C1547.774,802.137651 1547.32758,802.320162 1546.99709,802.648188 C1546.66413,802.978681 1546.47916,803.417693 1546.47916,803.886302 C1546.47669,804.352444 1546.65673,804.78899 1546.98723,805.11455 L1552.73138,810.794581 C1553.55021,811.606014 1554.65021,812.052426 1555.8242,812.052426 L1555.83653,812.052426 C1557.01545,812.049959 1558.12285,811.596149 1558.95401,810.777317 C1559.78271,809.956018 1560.24145,808.86342 1560.24392,807.699297 C1560.24639,806.535174 1559.79504,805.445042 1558.97374,804.633609 L1552.87936,798.603355 C1551.66098,797.404703 1550.03318,796.743718 1548.29686,796.743718 L1548.2796,796.743718 C1546.53588,796.748651 1544.89822,797.419501 1543.66997,798.632951 C1542.44172,799.846401 1541.76347,801.464334 1541.761,803.188321 C1541.75607,804.912308 1542.42692,806.525309 1543.64531,807.728893 L1551.513,815.507799 C1551.68071,815.673045 1551.77197,815.892551 1551.77197,816.124389 C1551.77197,816.358694 1551.68071,816.5782 1551.513,816.74098 C1551.34529,816.906226 1551.12331,816.997481 1550.88901,816.997481 C1550.65471,816.997481 1550.43273,816.906226 1550.26749,816.743446 L1542.39979,808.962074 C1541.61549,808.187637 1541.00876,807.277549 1540.59442,806.261408 C1540.19733,805.279796 1539.99756,804.243924 1540.00002,803.183389 C1540.00249,802.120387 1540.2072,801.084515 1540.61168,800.105369 C1541.0285,799.089228 1541.63769,798.17914 1542.42692,797.39977 C1543.21123,796.622866 1544.13365,796.018607 1545.16212,795.604259 C1546.14866,795.207174 1547.19687,795.004933 1548.27467,795 L1548.29686,795 C1549.36726,795 1550.4056,795.197309 1551.38722,795.58946 C1552.41322,795.99641 1553.33317,796.595736 1554.11748,797.37264 L1560.21186,803.400428 C1560.79639,803.980023 1561.2502,804.655807 1561.55603,805.41298 C1561.85199,806.145489 1562.00244,806.914994 1561.99997,807.706696 C1561.99257,809.334495 1561.35132,810.863639 1560.19213,812.010498 L1560.19213,812.010498 Z" id="Shape" transform="translate(1551.000000, 805.998741) scale(1, -1) translate(-1551.000000, -805.998741) "></path>
        </g>
    </g>
</svg>