<?xml version="1.0" encoding="UTF-8"?>
<svg width="24px" height="24px" viewBox="0 0 24 24" version="1.1" xmlns="http://www.w3.org/2000/svg" xmlns:xlink="http://www.w3.org/1999/xlink">
    <g id="B端移动端v1.0" stroke="none" stroke-width="1" fill="none" fill-rule="evenodd" fill-opacity="0.598612325">
        <g id="chat2左滑块" transform="translate(-694.000000, -436.000000)" fill="#000000" fill-rule="nonzero">
            <g id="编组-3备份-17" transform="translate(0.000000, 336.000000)">
                <g id="Vector" transform="translate(694.000000, 100.000000)">
                    <path d="M7.15152,8.48485091 C6.54902182,8.48485091 6.06061091,8.97326182 6.06061091,9.57576 C6.06061091,10.1782473 6.54902182,10.6666691 7.15152,10.6666691 L7.15152,8.48485091 Z M16.8484364,10.6666691 C17.4509455,10.6666691 17.9393455,10.1782473 17.9393455,9.57576 C17.9393455,8.97326182 17.4509455,8.48485091 16.8484364,8.48485091 L16.8484364,10.6666691 Z M7.15152,13.3333091 C6.54902182,13.3333091 6.06061091,13.8217091 6.06061091,14.4242182 C6.06061091,15.0267273 6.54902182,15.5151273 7.15152,15.5151273 L7.15152,13.3333091 Z M12,15.5151273 C12.6025091,15.5151273 13.0909091,15.0267273 13.0909091,14.4242182 C13.0909091,13.8217091 12.6025091,13.3333091 12,13.3333091 L12,15.5151273 Z M2.18181818,18.0606545 L2.18181818,12 L0,12 L0,18.0606545 L2.18181818,18.0606545 Z M12,21.8181818 L5.93938909,21.8181818 L5.93938909,24 L12,24 L12,21.8181818 Z M0,18.0606545 C0,21.3408 2.65915636,24 5.93938909,24 L5.93938909,21.8181818 C3.86414182,21.8181818 2.18181818,20.1358909 2.18181818,18.0606545 L0,18.0606545 Z M21.8181818,12 C21.8181818,17.4224727 17.4224727,21.8181818 12,21.8181818 L12,24 C18.6273818,24 24,18.6273818 24,12 L21.8181818,12 Z M12,2.18181818 C17.4224727,2.18181818 21.8181818,6.57757091 21.8181818,12 L24,12 C24,5.37258545 18.6273818,0 12,0 L12,2.18181818 Z M12,0 C5.37258545,0 0,5.37258545 0,12 L2.18181818,12 C2.18181818,6.57757091 6.57757091,2.18181818 12,2.18181818 L12,0 Z M7.15152,10.6666691 L16.8484364,10.6666691 L16.8484364,8.48485091 L7.15152,8.48485091 L7.15152,10.6666691 Z M7.15152,15.5151273 L12,15.5151273 L12,13.3333091 L7.15152,13.3333091 L7.15152,15.5151273 Z" id="形状"></path>
                </g>
            </g>
        </g>
    </g>
</svg>