<?xml version="1.0" encoding="UTF-8"?>
<svg width="30px" height="30px" viewBox="0 0 30 30" version="1.1" xmlns="http://www.w3.org/2000/svg" xmlns:xlink="http://www.w3.org/1999/xlink">
    <defs>
        <polygon id="path-1" points="0 0 30 0 30 30 0 30"></polygon>
    </defs>
    <g id="B端移动端v1.0" stroke="none" stroke-width="1" fill="none" fill-rule="evenodd">
        <g id="icon/插图" transform="translate(-300.000000, -132.000000)">
            <g id="close" transform="translate(300.000000, 132.000000)">
                <mask id="mask-2" fill="white">
                    <use xlink:href="#path-1"></use>
                </mask>
                <g id="Clip-2"></g>
                <path d="M22.5552592,10.9213562 C23.0241991,11.3905025 23.059705,12.1376675 22.638379,12.6490321 L22.5565681,12.740505 L16.0089163,19.2858078 C14.8828714,20.4117917 13.0732147,20.4615372 11.8871206,19.399208 L11.7670223,19.2858078 L8.12921974,15.6491466 C7.62771905,15.1462912 7.62853716,14.3320351 8.13134682,13.8304888 C8.59963229,13.3631425 9.34607474,13.3276333 9.85673824,13.7481795 L9.94820281,13.8299979 L13.5846963,17.4681318 C13.7309742,17.6145866 13.9613536,17.6352048 14.1313566,17.5173864 L14.1914058,17.4681318 L20.7362761,10.9226653 C21.2382676,10.4203008 22.0524495,10.4201371 22.5546047,10.9221744 C22.5547683,10.922338 22.5550955,10.9225017 22.5552592,10.9226653 L22.5552592,10.9213562 Z M15.0000245,2.57179559 C8.13658272,2.47017722 2.49048676,7.95200537 2.38887765,14.8159088 C2.28710491,21.6798121 7.76843376,27.3264224 14.631712,27.4282044 C14.7544283,27.4300044 14.8773082,27.4300044 15.0000245,27.4282044 C21.8633027,27.5298228 27.5093987,22.0479946 27.6110078,15.1840912 C27.7127805,8.32018785 22.2314517,2.67341395 15.3681735,2.57179559 C15.2454572,2.56999558 15.1227409,2.56999558 15.0000245,2.57179559 L15.0000245,2.57179559 Z M15.0000245,-8.18183306e-05 C23.2846849,-8.18183306e-05 30.0000491,6.71589403 30.0000491,15 C30.0000491,23.284106 23.2846849,30.0000818 15.0000245,30.0000818 C6.71520052,30.0000818 0,23.284106 0,15 C0,6.71589403 6.71520052,-8.18183306e-05 15.0000245,-8.18183306e-05 L15.0000245,-8.18183306e-05 Z" id="Fill-1" fill="#000000" mask="url(#mask-2)"></path>
            </g>
        </g>
    </g>
</svg>