<?xml version="1.0" encoding="UTF-8"?>
<svg width="30px" height="30px" viewBox="0 0 30 30" version="1.1" xmlns="http://www.w3.org/2000/svg" xmlns:xlink="http://www.w3.org/1999/xlink">
    <defs>
        <polygon id="path-1" points="1.25161564e-16 0 30 0 30 30 1.25161564e-16 30"></polygon>
    </defs>
    <g id="B端移动端v1.0" stroke="none" stroke-width="1" fill="none" fill-rule="evenodd">
        <g id="icon/插图" transform="translate(-36.000000, -132.000000)">
            <g id="open" transform="translate(36.000000, 132.000000)">
                <mask id="mask-2" fill="white">
                    <use xlink:href="#path-1"></use>
                </mask>
                <g id="Clip-2"></g>
                <path d="M8.41199823,3.65665915 C8.72001431,3.04559419 9.34771048,2.66197759 10.0319987,2.66668595 L19.9680013,2.66668595 C20.6522895,2.66197759 21.2799857,3.04559419 21.5880018,3.65665915 L26.4840751,13.4667466 L22.1999299,13.4667466 C21.2058977,13.4667466 20.4000015,14.2724279 20.4000015,15.2666774 L20.4000015,18.8667551 C20.4000015,19.8607887 19.5943212,20.6666859 18.600073,20.6666859 L11.399927,20.6666859 C10.4058948,20.6666859 9.59999855,19.8607887 9.59999855,18.8667551 L9.59999855,15.2666774 C9.59999855,14.2724279 8.79410233,13.4667466 7.80007007,13.4667466 L3.51592492,13.4667466 L8.41199823,3.65665915 Z M29.6499759,13.9000054 L24.0833851,2.76660914 C23.2353865,1.06800971 21.4983893,-0.00378992745 19.5999924,2.13162872e-14 L10.4000076,2.13162872e-14 C8.50141067,-0.00378992745 6.76461353,1.06800971 5.91661492,2.76660914 L0.350024061,13.9000054 C0.117824442,14.3658052 -0.00197536101,14.8794051 1.46371803e-12,15.4000049 L1.46371803e-12,25 C1.46371803e-12,27.7614008 2.23862096,30 5.00001642,30 L24.9999836,30 C27.761379,30 30,27.7614008 30,25 L30,15.4000049 C30.0019754,14.8794051 29.8821756,14.3658052 29.6499759,13.9000054 L29.6499759,13.9000054 Z" id="Fill-1" fill="#000000" mask="url(#mask-2)"></path>
            </g>
        </g>
    </g>
</svg>