<?xml version="1.0" encoding="UTF-8"?>
<svg width="30px" height="30px" viewBox="0 0 30 30" version="1.1" xmlns="http://www.w3.org/2000/svg" xmlns:xlink="http://www.w3.org/1999/xlink">
    <defs>
        <polygon id="path-1" points="0 0 30 0 30 30 0 30"></polygon>
    </defs>
    <g id="B端移动端v1.0" stroke="none" stroke-width="1" fill="none" fill-rule="evenodd">
        <g id="icon/插图" transform="translate(-234.000000, -132.000000)">
            <g id="pending" transform="translate(234.000000, 132.000000)">
                <mask id="mask-2" fill="white">
                    <use xlink:href="#path-1"></use>
                </mask>
                <g id="Clip-2"></g>
                <path d="M19.2934848,15.7416038 C19.9639865,15.7518894 20.499054,16.305084 20.4887939,16.9772487 C20.4795597,17.5870141 20.0214434,18.0956377 19.4174617,18.1671227 L19.2934848,18.1731249 L14.6977862,18.1731249 C14.0748233,18.1743226 13.5513839,17.7039273 13.4850348,17.0830191 L13.4793917,16.9573632 L13.4793917,12.3715228 C13.4793917,11.7243864 13.9881249,11.1902202 14.6350282,11.1573063 C15.2812476,11.1233637 15.8411105,11.6023304 15.9089986,12.2474098 L15.9161807,12.3715228 L15.9161807,15.7416038 L19.2934848,15.7416038 Z M6.56951317,0.418955279 C6.15842259,-0.0522972053 5.4591924,-0.137324936 4.94772322,0.221642944 L4.85093567,0.298956465 L1.17010178,3.48886779 C0.679836935,3.91229217 0.6088708,4.64754205 1.0090172,5.15736558 C1.41053163,5.66667483 2.13849027,5.77381663 2.66911176,5.40164888 L2.76743834,5.32450679 L6.44690421,2.13596688 C6.95358531,1.69814263 7.01018722,0.931350214 6.57344623,0.423412378 C6.57207821,0.421869536 6.57071019,0.420326694 6.56951317,0.418955279 L6.56951317,0.418955279 Z M23.0499019,0.418955279 C23.4608214,-0.0522972053 24.1600516,-0.137324936 24.6715208,0.221642944 L24.7684794,0.298956465 L28.4477742,3.48886779 C28.9394071,3.91314931 29.0107152,4.64599921 28.6102268,5.15736558 C28.2087124,5.66753197 27.4795567,5.77467376 26.9487642,5.40164888 L26.8518057,5.32450679 L23.1709718,2.13596688 C22.6646327,1.69762835 22.6087148,0.930835933 23.0459688,0.423412378 C23.0471658,0.421869536 23.0485338,0.420326694 23.0499019,0.418955279 L23.0499019,0.418955279 Z M15.0341486,4.05457648 C21.5392637,4.05457648 26.8133301,9.31875301 26.8133301,15.811546 C26.8133301,22.3043389 21.5392637,27.5685155 15.0341486,27.5685155 C8.52886252,27.5685155 3.25479613,22.3043389 3.25479613,15.811546 C3.25479613,9.31875301 8.5274945,4.05457648 15.0341486,4.05457648 L15.0341486,4.05457648 Z M15.0341486,1.62168625 C7.18221597,1.62168625 0.818007146,7.97442345 0.818007146,15.811546 C0.818007146,23.6471257 7.18221597,30.0000343 15.0341486,30.0000343 C22.8859102,30.0000343 29.2501191,23.6471257 29.2501191,15.811546 C29.2501191,7.97442345 22.8845422,1.62168625 15.0341486,1.62168625 L15.0341486,1.62168625 Z" id="Fill-1" fill="#000000" mask="url(#mask-2)"></path>
            </g>
        </g>
    </g>
</svg>