<?xml version="1.0" encoding="UTF-8"?>
<svg width="30px" height="30px" viewBox="0 0 30 30" version="1.1" xmlns="http://www.w3.org/2000/svg" xmlns:xlink="http://www.w3.org/1999/xlink">
    <g id="B端移动端v1.0" stroke="none" stroke-width="1" fill="none" fill-rule="evenodd">
        <g id="会话功能界面" transform="translate(-64.000000, -509.000000)">
            <g id="编组-3" transform="translate(32.000000, 477.000000)">
                <g id="details" transform="translate(32.000000, 32.000000)">
                    <rect id="矩形" x="0" y="5.45696821e-12" width="30" height="30"></rect>
                    <g id="User,-person,-profile" transform="translate(3.000000, 0.000000)" fill="#000000" fill-opacity="0.164417614">
                        <path d="M12,0 C7.85787,0 4.5,3.35787 4.5,7.5 C4.5,11.64213 7.85787,15 12,15 C16.1421,15 19.5,11.64213 19.5,7.5 C19.5,3.35787 16.1421,0 12,0 Z" id="路径"></path>
                        <path d="M9.21435,18 C4.125375,18 0,22.12545 0,27.21435 C0,28.75275 1.247205,30 2.78571,30 L21.21435,30 C22.75275,30 24,28.75275 24,27.21435 C24,22.12545 19.8747,18 14.78565,18 L9.21435,18 Z" id="路径"></path>
                    </g>
                </g>
            </g>
        </g>
    </g>
</svg>