<?xml version="1.0" encoding="UTF-8"?>
<svg width="40px" height="40px" viewBox="0 0 40 40" version="1.1" xmlns="http://www.w3.org/2000/svg" xmlns:xlink="http://www.w3.org/1999/xlink">
    <g id="B端移动端v1.0" stroke="none" stroke-width="1" fill="none" fill-rule="evenodd" fill-opacity="0.595498252">
        <g id="会话界面" transform="translate(-32.000000, -1487.000000)" fill="#000000">
            <g id="编组-3" transform="translate(0.000000, 1458.000000)">
                <g id="表情" transform="translate(32.000000, 29.000000)">
                    <path d="M20,40 C8.953125,40 0,31.046875 0,20 C0,8.953125 8.953125,0 20,0 C31.046875,0 40,8.953125 40,20 C40,31.046875 31.046875,40 20,40 L20,40 Z M32.1523437,7.84765625 C30.5742187,6.26953125 28.734375,5.02734375 26.6875,4.1640625 C24.5703125,3.265625 22.3203125,2.8125 20,2.8125 C17.6796875,2.8125 15.4296875,3.265625 13.3125,4.16015625 C11.265625,5.02734375 9.4296875,6.265625 7.84765625,7.84375 C6.26953125,9.421875 5.02734375,11.2617187 4.1640625,13.3085937 C3.265625,15.4296875 2.8125,17.6796875 2.8125,20 C2.8125,22.3203125 3.265625,24.5703125 4.16015625,26.6875 C5.02734375,28.734375 6.265625,30.5703125 7.84375,32.1523437 C9.421875,33.7304687 11.2617187,34.9726562 13.3085938,35.8359375 C15.4296875,36.734375 17.6796875,37.1875 20,37.1875 C22.3203125,37.1875 24.5703125,36.734375 26.6875,35.8398437 C28.734375,34.9726562 30.5703125,33.734375 32.1523437,32.15625 C33.7304687,30.578125 34.9726562,28.7382812 35.8359375,26.6914062 C36.734375,24.5703125 37.1875,22.3203125 37.1875,20 C37.1875,17.6796875 36.734375,15.4296875 35.8398437,13.3125 C34.9726562,11.265625 33.734375,9.42578125 32.1523437,7.84765625 L32.1523437,7.84765625 Z M25.0117188,17.921875 C24.234375,17.921875 23.6054688,17.2929688 23.6054688,16.515625 C23.6054688,14.5273438 21.9882813,12.9101562 20,12.9101562 C18.0117188,12.9101562 16.3945313,14.5273438 16.3945313,16.515625 C16.3945313,17.2929688 15.765625,17.921875 14.9882813,17.921875 C14.2109375,17.921875 13.5820313,17.2929688 13.5820313,16.515625 C13.5820313,12.9765625 16.4609375,10.0976562 20,10.0976562 C23.5390625,10.0976562 26.4179688,12.9765625 26.4179688,16.515625 C26.4179688,17.2929688 25.7890625,17.921875 25.0117188,17.921875 L25.0117188,17.921875 Z M7.5859375,25.0625 C7.5859375,26.3569174 8.63527012,27.40625 9.9296875,27.40625 C11.2241049,27.40625 12.2734375,26.3569174 12.2734375,25.0625 C12.2734375,23.7680826 11.2241049,22.71875 9.9296875,22.71875 C8.63527012,22.71875 7.5859375,23.7680826 7.5859375,25.0625 L7.5859375,25.0625 Z M27.7148438,25.0625 C27.7148438,26.3569174 28.7641764,27.40625 30.0585937,27.40625 C31.3530111,27.40625 32.4023437,26.3569174 32.4023437,25.0625 C32.4023437,23.7680826 31.3530111,22.71875 30.0585937,22.71875 C28.7641764,22.71875 27.7148438,23.7680826 27.7148438,25.0625 L27.7148438,25.0625 Z" transform="translate(20.000000, 20.000000) scale(1, -1) translate(-20.000000, -20.000000) "></path>
                </g>
            </g>
        </g>
    </g>
</svg>