<?xml version="1.0" encoding="UTF-8"?>
<svg width="275px" height="284px" viewBox="0 0 275 284" version="1.1" xmlns="http://www.w3.org/2000/svg" xmlns:xlink="http://www.w3.org/1999/xlink">
    <title>无内容</title>
    <defs>
        <polygon id="path-1" points="0 0 164.527363 0 164.527363 186.745904 0 186.745904"></polygon>
        <linearGradient x1="50%" y1="0%" x2="50%" y2="100%" id="linearGradient-3">
            <stop stop-color="#CBCFFF" offset="0%"></stop>
            <stop stop-color="#B8C3FF" offset="100%"></stop>
        </linearGradient>
    </defs>
    <g id="B端移动端v1.0" stroke="none" stroke-width="1" fill="none" fill-rule="evenodd" opacity="0.681004724">
        <g id="chat无对话缺省页" transform="translate(-238.000000, -564.000000)">
            <g id="编组" transform="translate(238.000000, 564.000000)">
                <g transform="translate(0.000000, 97.254096)">
                    <mask id="mask-2" fill="white">
                        <use xlink:href="#path-1"></use>
                    </mask>
                    <g id="Clip-2"></g>
                    <path d="M8.56295474,33.2736303 L104.16058,0.676981859 C110.76179,-1.57291786 117.93098,1.96806355 120.174508,8.58802166 L163.852298,137.414558 C166.095826,144.031352 162.564873,151.224069 155.963664,153.473969 L60.3660384,186.070617 C53.7648292,188.320517 46.5956384,184.776371 44.3521108,178.159578 L0.674320459,49.333041 C-1.56920713,42.7130829 1.96174557,35.52353 8.56295474,33.2736303" id="Fill-1" fill="#D2D9FF" mask="url(#mask-2)"></path>
                </g>
                <path d="M36.4798848,161.447234 L101.731512,137.6888 C104.189611,136.79327 106.903301,138.06853 107.796294,140.53361 C108.689288,142.995525 107.420795,145.716923 104.962697,146.612453 L39.707914,170.367723 C37.252971,171.266417 34.5361254,169.991157 33.6462874,167.529242 C32.753294,165.064162 34.0217864,162.3396 36.4798848,161.447234" id="Fill-3" fill="#FFFFFF"></path>
                <path d="M42.7907923,183.598146 L108.04242,159.839711 C110.500518,158.944181 113.214208,160.219441 114.107202,162.684521 C115.000195,165.146437 113.731703,167.867834 111.273604,168.766529 L46.0188214,192.518634 C43.5638784,193.417329 40.8470328,192.142069 39.9571948,189.680153 C39.0642014,187.215073 40.3326938,184.490511 42.7907923,183.598146" id="Fill-5" fill="#FFFFFF"></path>
                <path d="M49.1016997,202.584641 L114.353327,178.826207 C116.811425,177.933841 119.525116,179.202772 120.418109,181.671017 C121.311102,184.132932 120.04261,186.85433 117.584512,187.753024 L52.3297288,211.50513 C49.8747859,212.403824 47.1579402,211.128564 46.2681023,208.666649 C45.3751089,206.201569 46.6436013,203.477007 49.1016997,202.584641" id="Fill-7" fill="#FFFFFF"></path>
                <path d="M58.5680608,224.735553 L123.819688,200.977118 C126.277787,200.084753 128.991477,201.353684 129.88447,203.821928 C130.777464,206.283844 129.508971,209.005241 127.050873,209.903935 L61.79609,233.656041 C59.341147,234.554735 56.6243014,233.279476 55.7344634,230.81756 C54.84147,228.35248 56.1099624,225.627918 58.5680608,224.735553" id="Fill-9" fill="#FFFFFF"></path>
                <path d="M61.945343,120.867398 C65.520472,119.649097 67.432677,115.753701 66.2178273,112.168418 C65.0029776,108.583135 61.1186141,106.665499 57.543485,107.883799 C53.968356,109.105264 52.056151,112.997495 53.2710007,116.582778 C54.4890058,120.168062 58.3702139,122.085698 61.945343,120.867398 M19.3972051,116.063814 L31.6656091,111.880456 C31.67192,111.396301 31.6908527,110.91531 31.7224073,110.431154 C31.9559109,106.836377 32.8899252,103.32704 34.4771184,100.096172 C36.0643116,96.8653028 38.2731292,93.9761911 40.9710421,91.5997148 C43.668955,89.2264028 46.8086315,87.4068637 50.2070551,86.2486874 C53.6086342,85.0873468 57.202696,84.60952 60.7872914,84.8468512 C64.3718869,85.0778535 67.871285,86.0176851 71.0930033,87.6093863 C74.3147215,89.2010875 77.1956508,91.4130142 79.562241,94.1185898 C79.8809419,94.4824977 80.1901763,94.8558987 80.486789,95.2324642 L92.7583485,91.0522708 C93.9479545,90.6440611 95.2416905,91.2832732 95.6487441,92.4794224 L102.249953,111.953238 L24.5753046,138.436235 L17.9740954,118.962419 C17.5701974,117.769434 18.2044436,116.468859 19.3972051,116.063814" id="Fill-11" fill="#A3B5FF"></path>
                <path d="M115.133355,41.4510006 L259.845618,52.782774 C268.532582,53.4631234 275.02335,61.0767081 274.344928,69.7883451 L259.09462,265.687842 C258.416197,274.399479 250.82102,280.908682 242.137212,280.231497 L97.424949,268.896559 C88.7379849,268.219374 82.2440611,260.602625 82.9224837,251.890988 L98.175947,55.9946561 C98.8543695,47.2798547 106.446391,40.7706512 115.133355,41.4510006" id="Fill-13" fill="#B1BAEC"></path>
                <path d="M110.916407,41.137407 L262.378185,41.137407 C269.348582,41.137407 275,46.8048759 275,53.7950706 L275,249.988858 C275,256.979052 269.348582,262.646521 262.378185,262.646521 L110.916407,262.646521 C103.94601,262.646521 98.294592,256.979052 98.294592,249.988858 L98.294592,53.7950706 C98.294592,46.8048759 103.94601,41.137407 110.916407,41.137407" id="Fill-15" fill="url(#linearGradient-3)"></path>
                <path d="M189.80275,50.6306547 C195.031337,50.6306547 199.269111,46.3808441 199.269111,41.137407 C199.269111,35.8939698 195.031337,31.6441592 189.80275,31.6441592 C184.574163,31.6441592 180.336389,35.8939698 180.336389,41.137407 C180.336389,46.3808441 184.574163,50.6306547 189.80275,50.6306547 M136.160037,25.3153274 L154.105102,25.3153274 C154.325984,24.6856086 154.565798,24.0622187 154.82139,23.4419931 C156.724128,18.8346036 159.510394,14.6480813 163.028725,11.122922 C166.5439,7.59459821 170.718566,4.80041895 175.312906,2.89227615 C179.904091,0.984133351 184.829755,0 189.80275,0 C194.775745,0 199.701408,0.984133351 204.292593,2.89227615 C208.886934,4.80041895 213.061599,7.59459821 216.576774,11.122922 C220.095105,14.6480813 222.881371,18.8346036 224.787265,23.4419931 C225.042857,24.0622187 225.279516,24.6856086 225.500398,25.3153274 L243.445463,25.3153274 C245.190429,25.3153274 246.600917,26.7329857 246.600917,28.4797433 L246.600917,56.9594866 L133.004583,56.9594866 L133.004583,28.4797433 C133.004583,26.7329857 134.418226,25.3153274 136.160037,25.3153274" id="Fill-17" fill="#B0C0FF"></path>
                <path d="M140.893217,101.261309 C145.250899,101.261309 148.781851,104.802291 148.781851,109.172349 C148.781851,113.542408 145.250899,117.083389 140.893217,117.083389 C136.535536,117.083389 133.004583,113.542408 133.004583,109.172349 C133.004583,104.802291 136.535536,101.261309 140.893217,101.261309 Z" id="Stroke-19" stroke="#FFFFFF" stroke-width="6.31111111"></path>
                <path d="M140.893217,151.891964 C145.250899,151.891964 148.781851,155.432946 148.781851,159.803004 C148.781851,164.173062 145.250899,167.714044 140.893217,167.714044 C136.535536,167.714044 133.004583,164.173062 133.004583,159.803004 C133.004583,155.432946 136.535536,151.891964 140.893217,151.891964 Z" id="Stroke-21" stroke="#FFFFFF" stroke-width="6.31111111"></path>
                <path d="M140.893217,202.522619 C145.250899,202.522619 148.781851,206.0636 148.781851,210.433659 C148.781851,214.803717 145.250899,218.344698 140.893217,218.344698 C136.535536,218.344698 133.004583,214.803717 133.004583,210.433659 C133.004583,206.0636 136.535536,202.522619 140.893217,202.522619 Z" id="Stroke-23" stroke="#FFFFFF" stroke-width="6.31111111"></path>
                <path d="M177.180935,101.261309 L252.911824,101.261309 C256.395445,101.261309 259.222731,104.096626 259.222731,107.590141 C259.222731,111.083656 256.395445,113.918973 252.911824,113.918973 L177.180935,113.918973 C173.697314,113.918973 170.870027,111.083656 170.870027,107.590141 C170.870027,104.096626 173.697314,101.261309 177.180935,101.261309" id="Fill-25" fill="#FFFFFF"></path>
                <path d="M177.180935,151.891964 L230.823648,151.891964 C234.307269,151.891964 237.134555,154.727281 237.134555,158.220796 C237.134555,161.714311 234.307269,164.549628 230.823648,164.549628 L177.180935,164.549628 C173.697314,164.549628 170.870027,161.714311 170.870027,158.220796 C170.870027,154.727281 173.697314,151.891964 177.180935,151.891964" id="Fill-27" fill="#FFFFFF"></path>
                <path d="M177.180935,199.358203 L215.046379,199.358203 C218.53,199.358203 221.357287,202.19352 221.357287,205.687035 C221.357287,209.18055 218.53,212.015867 215.046379,212.015867 L177.180935,212.015867 C173.697314,212.015867 170.870027,209.18055 170.870027,205.687035 C170.870027,202.19352 173.697314,199.358203 177.180935,199.358203" id="Fill-29" fill="#FFFFFF"></path>
            </g>
        </g>
    </g>
</svg>