<?xml version="1.0" encoding="UTF-8"?>
<svg width="40px" height="40px" viewBox="0 0 40 40" version="1.1" xmlns="http://www.w3.org/2000/svg" xmlns:xlink="http://www.w3.org/1999/xlink">
    <g id="B端移动端v1.0" stroke="none" stroke-width="1" fill="none" fill-rule="evenodd" fill-opacity="0.598339161">
        <g id="会话界面" transform="translate(-114.000000, -1487.000000)" fill="#000000">
            <g id="编组-3" transform="translate(0.000000, 1458.000000)">
                <g id="附件" transform="translate(114.000000, 29.000000)">
                    <path d="M36.7129581,30.9317188 C34.6008555,33.0171544 31.7936873,34.1742348 28.7981787,34.1787196 L28.7667886,34.1787196 C27.3273302,34.1787196 25.9237461,33.9096311 24.5874264,33.3804238 C23.2017795,32.8287925 21.9551457,32.0170423 20.8878836,30.9631125 L10.4439623,20.6390851 C9.23768718,19.4461262 8.57849592,17.8540195 8.58298022,16.1542774 C8.58746451,14.4590201 9.25562435,12.8669133 10.4663838,11.6694697 C11.6771432,10.472026 13.2825206,9.81275928 14.995521,9.80827447 L15.0089739,9.80827447 C16.71749,9.80827447 18.318383,10.4630564 19.5201739,11.6470456 L28.6860713,20.7063572 C28.9910034,21.0068393 29.1569222,21.4059872 29.1569222,21.8275591 C29.1569222,22.2536159 28.9910034,22.6527638 28.6860713,22.9487611 C28.3856236,23.2492432 27.9820372,23.4106963 27.5560292,23.4106963 C27.1300212,23.4106963 26.7264348,23.2447584 26.425987,22.9487611 L17.2600896,13.8894495 C16.6636785,13.2974549 15.8609898,12.9745487 15.0044896,12.9745487 L15.0000053,12.9745487 C14.1345365,12.9790335 13.3228792,13.3109093 12.7219838,13.9073887 C12.1166041,14.508353 11.780282,15.3066487 11.780282,16.1587622 C11.7757977,17.0063909 12.1031512,17.8002018 12.7040466,18.3921964 L23.1479679,28.7207086 C24.6367536,30.1962103 26.6367489,31.0079605 28.7712729,31.0079605 L28.7936944,31.0079605 C30.9371871,31.0034757 32.9506352,30.1782711 34.4618423,28.6893149 C35.9685652,27.195874 36.8026439,25.2091042 36.8071282,23.0922749 C36.8116125,20.9754457 35.9909867,18.9931607 34.4977167,17.5176589 L23.4170256,6.55230407 C21.2017842,4.37268752 18.24215,3.17075905 15.0852069,3.17075905 L15.0538168,3.17075905 C11.8834208,3.17972867 8.9058494,4.39959637 6.67267086,6.60612176 C4.43949233,8.81264716 3.20631141,11.754681 3.20182711,14.8895616 C3.19285852,18.0244422 4.41258656,20.9575064 6.62782792,23.1460926 L20.9327266,37.2911761 C21.2376586,37.5916583 21.4035775,37.9908061 21.4035775,38.4123781 C21.4035775,38.8384348 21.2376586,39.2375827 20.9327266,39.53358 C20.6277946,39.8340621 20.2242081,40 19.7982001,40 C19.3721922,40 18.9686057,39.8340621 18.668158,39.5380648 L4.36325932,25.3884965 C2.93725375,23.9802668 1.83411737,22.3253728 1.08075593,20.477632 C0.358784557,18.6926786 -0.00444327733,16.8090593 4.10169199e-05,14.880592 C0.00452531117,12.9476399 0.376721734,11.0640206 1.11214599,9.28355197 C1.86999172,7.43581119 2.9776124,5.78091714 4.41258656,4.36371791 C5.83859213,2.95100348 7.51571818,1.85222559 9.38566889,1.09877789 C11.1793866,0.376723848 13.0852116,0.00896961543 15.0448482,0 L15.0852069,0 C17.0313906,0 18.9192785,0.358784617 20.7040276,1.07186904 C22.569494,1.81186232 24.2421357,2.90167059 25.6681413,4.31438502 L36.7488324,15.2752551 C37.8116102,16.3291849 38.6367203,17.5580222 39.1927728,18.9348582 C39.7308881,20.2668461 40.00443,21.6661061 39.9999457,23.1057293 C39.9864929,26.0657024 38.8205764,28.8462832 36.7129581,30.9317188 L36.7129581,30.9317188 Z" transform="translate(20.000000, 20.000000) scale(1, -1) translate(-20.000000, -20.000000) "></path>
                </g>
            </g>
        </g>
    </g>
</svg>