<?xml version="1.0" encoding="UTF-8"?>
<svg width="46px" height="40px" viewBox="0 0 46 40" version="1.1" xmlns="http://www.w3.org/2000/svg" xmlns:xlink="http://www.w3.org/1999/xlink">
    <title>Shape</title>
    <g id="B端移动端v1.0" stroke="none" stroke-width="1" fill="none" fill-rule="evenodd">
        <g id="会话界面" transform="translate(-196.000000, -1480.000000)" fill="#6C6C6C">
            <g id="编组-3" transform="translate(0.000000, 1458.000000)">
                <g id="image" transform="translate(196.000000, 22.000000)">
                    <path d="M42.3035714,40 L3.69642857,40 C1.66339286,40 0,38.3157895 0,36.2573099 L0,3.74269006 C0,1.68421053 1.66339286,0 3.69642857,0 L42.3035714,0 C44.3366071,0 46,1.68421053 46,3.74269006 L46,36.2573099 C46,38.3157895 44.3366071,40 42.3035714,40 Z M43,4.60546312 L42.9946801,2.6 L3.00531986,2.6 L3,16.2309908 L12.8736534,26.6 L24.4337013,11.8550286 C25.0720841,11.1120437 26.146695,10.9700025 26.9446735,11.5272411 L35.483043,17.4547306 L43,13.8217532 L43,4.60546312 Z M43,17.9746589 L36.7180851,20.5061728 C36.0638298,20.9948018 35.1648936,21.0207927 34.4840426,20.568551 L26.1968085,15.1052632 L14.3829787,29.4106563 C14.0319149,29.8005198 13.5265957,30.0292398 12.9946809,30.0448343 C12.462766,30.0604288 11.9468085,29.8525016 11.5744681,29.4834308 L3,20.9116309 L3,36.9948018 L3.00531915,37 L42.9893617,37 L42.9946809,36.9948018 L43,17.9746589 Z M32.5491071,32.4210526 C29.6895089,32.4210526 27.3638393,30.0662768 27.3638393,27.1708902 C27.3638393,24.2755036 29.6895089,21.9207277 32.5491071,21.9207277 C35.4087054,21.9207277 37.734375,24.2755036 37.734375,27.1708902 C37.734375,30.0662768 35.4087054,32.4210526 32.5491071,32.4210526 Z M32.5491071,25.1708902 C31.459298,25.1708902 30.5738281,26.0674419 30.5738281,27.1708902 C30.5738281,28.2743385 31.459298,29.1708902 32.5491071,29.1708902 C33.6389163,29.1708902 34.5243862,28.2743385 34.5243862,27.1708902 C34.5243862,26.0674419 33.6389163,25.1708902 32.5491071,25.1708902 Z" id="Shape" transform="translate(23.000000, 20.000000) scale(1, -1) translate(-23.000000, -20.000000) "></path>
                </g>
            </g>
        </g>
    </g>
</svg>