<?xml version="1.0" encoding="UTF-8"?>
<svg width="270px" height="60px" viewBox="0 0 270 60" version="1.1" xmlns="http://www.w3.org/2000/svg" xmlns:xlink="http://www.w3.org/1999/xlink">
    <defs>
        <linearGradient x1="31.2814343%" y1="4.35803271%" x2="57.9346995%" y2="78.3291772%" id="linearGradient-1">
            <stop stop-color="#00EFFF" offset="0%"></stop>
            <stop stop-color="#3B59FE" offset="92%"></stop>
        </linearGradient>
    </defs>
    <g id="B端移动端v1.0" stroke="none" stroke-width="1" fill="none" fill-rule="evenodd">
        <g id="icon/插图" transform="translate(-36.000000, -532.000000)" fill-rule="nonzero">
            <g id="1资源-5" transform="translate(36.000000, 532.000000)">
                <path d="M59.6221965,29.9987145 C59.6329331,36.0493173 57.8151671,41.960209 54.4100287,46.9471438 C50.1676054,52.4878039 41.9323131,52.6869018 38.5882853,47.4242611 C42.4046837,43.0943312 44.8414033,37.245159 44.93766,30.4184343 C44.93766,30.2785277 44.93766,30.1386211 44.93766,29.9987145 C44.93766,21.5893497 38.1628758,14.7722126 29.805756,14.7722126 C29.6702837,14.7722126 29.5348113,14.7722126 29.399339,14.7722126 C10.7790222,15.0322954 -0.5061803,33.0533419 6.53125131,48.7372308 C-1.6420006,38.4552833 -2.19675985,24.0121807 5.16342898,13.1261109 C12.5236178,2.24004117 26.0780727,-2.54402516 38.5834865,1.33044872 C51.0889002,5.20492261 59.6221965,16.8321532 59.6221965,29.9987145 L59.6221965,29.9987145 Z" id="路径" fill="url(#linearGradient-1)"></path>
                <path d="M54.4100287,46.9471438 C49.0740759,54.7908269 40.3594458,59.6255431 30.9196278,59.9791854 C21.4798098,60.3328276 12.4320425,56.1635411 6.53125131,48.7408181 C-0.5061803,33.0533419 10.7790222,15.0322954 29.4118167,14.7757999 C23.1277872,14.9445539 17.6017402,19.0047905 15.5285597,24.9764569 C13.4553791,30.9481232 15.2667936,37.5876521 20.0794317,41.6571487 C24.8920698,45.7266453 31.7037258,46.378659 37.1925637,43.2952227 C37.3367667,44.7613168 37.8176288,46.1736225 38.5971979,47.4206738 C41.9412257,52.6940765 50.1676054,52.4878039 54.4100287,46.9471438 Z" id="路径" fill="#3B59FE"></path>
                <ellipse id="椭圆形" fill="#3B59FE" cx="22.0267916" cy="29.9987145" rx="2.01069475" ry="2.02326471"></ellipse>
                <ellipse id="椭圆形" fill="#3B59FE" cx="29.8111036" cy="29.9987145" rx="2.01069475" ry="2.02326471"></ellipse>
                <ellipse id="椭圆形" fill="#3B59FE" cx="37.5954156" cy="29.9987145" rx="2.01069475" ry="2.02326471"></ellipse>
                <path d="M94.5740128,39.3294086 L90.5526233,24.2948299 C90.5227438,24.1232014 90.3746243,23.9979963 90.2014647,23.9979963 C90.028305,23.9979963 89.8801856,24.1232014 89.8503061,24.2948299 L85.7700931,39.3294086 C85.4242821,40.5682397 85.1503666,41.4573043 84.9483464,41.9966024 C84.7223202,42.5650988 84.3538561,43.065017 83.8788279,43.447685 C83.3725892,43.8745795 82.7011692,44.0880268 81.8645681,44.0880268 C81.283763,44.1106972 80.7072169,43.9795758 80.1925542,43.7077678 C79.7481907,43.4499259 79.3792757,43.0787047 79.1230357,42.6315632 C78.8300123,42.1115358 78.6064552,41.5548785 78.4581518,40.9760017 C78.2870288,40.3386494 78.133137,39.7473348 77.9964763,39.2020577 L73.4973685,20.8545624 C73.2216704,19.7891198 73.0838214,18.9771832 73.0838214,18.4187526 C73.0675699,17.7429209 73.3355504,17.0915784 73.8217891,16.6250782 C74.3102409,16.147414 74.9698077,15.8886653 75.6506657,15.9076085 C76.648883,15.9076085 77.3203029,16.229872 77.6649256,16.874399 C78.0095482,17.518926 78.3113901,18.4546261 78.5704512,19.6814994 L81.7932669,34.1403086 C81.7893291,34.3384324 81.94575,34.5022557 82.1426429,34.5062182 C82.3395358,34.5101806 82.5023413,34.3527818 82.5062792,34.154658 L86.0945137,20.7021001 C86.3098038,19.8199659 86.5752434,18.9509959 86.8895225,18.0994786 C87.1309768,17.4937846 87.5254564,16.9620505 88.0339072,16.5569186 C88.5627247,16.125241 89.2834613,15.9094021 90.1961171,15.9094021 C91.1087729,15.9094021 91.8259444,16.1354051 92.3476318,16.5874111 C92.8207719,16.9828772 93.1883796,17.4908813 93.4171503,18.0653987 C93.6132286,18.5975222 93.8782316,19.4776184 94.212159,20.7056874 L97.8360441,34.1582454 C97.8389099,34.286409 97.9095077,34.4032986 98.0212439,34.4648831 C98.1329802,34.5264676 98.2688796,34.5233907 98.3777501,34.4568116 C98.4866206,34.3902324 98.5519222,34.2702659 98.5490564,34.1421023 L101.773655,19.6761183 C101.902148,19.0172358 102.065784,18.3657881 102.263851,17.7246006 C102.423421,17.2476663 102.695617,16.8168159 103.057077,16.4690285 C103.432597,16.0971401 103.977457,15.9111958 104.691658,15.9111958 C105.369062,15.8969018 106.024141,16.1551481 106.511622,16.6286656 C107.004459,17.0914158 107.27695,17.7442606 107.260284,18.42234 C107.260284,18.9305477 107.124812,19.7424843 106.853867,20.8581498 L102.331587,39.2002641 C102.024992,40.440291 101.769495,41.3478902 101.565099,41.9230618 C101.355409,42.5091667 100.999371,43.031119 100.531231,43.4387166 C100.044006,43.8715901 99.3571371,44.0880268 98.4706251,44.0880268 C97.6387774,44.0880268 96.9679516,43.877569 96.4581478,43.4566534 C95.9883641,43.0844164 95.6248915,42.5936623 95.4046721,42.0342696 C95.2085937,41.514104 94.9317073,40.6124837 94.5740128,39.3294086 Z" id="路径" fill="#292929"></path>
                <path d="M111.106986,40.7248873 L111.106986,19.2546049 C111.106986,18.141331 111.358917,17.3042829 111.862779,16.7434607 C112.362114,16.1876243 113.079342,15.881225 113.823563,15.9058148 C114.578828,15.8769168 115.309535,16.1784842 115.827128,16.7326987 C116.339308,17.2851504 116.594804,18.1221984 116.59362,19.2438428 L116.59362,40.7141253 C116.59362,41.8405528 116.33812,42.6829818 115.827128,43.2414125 C115.312528,43.8009407 114.580647,44.1062685 113.823563,44.0772647 C113.082239,44.0977871 112.369554,43.7887539 111.875257,43.2324441 C111.363076,42.6752092 111.106986,41.839357 111.106986,40.7248873 Z" id="路径" fill="#292929"></path>
                <path d="M128.099852,19.2546049 L128.099852,38.721353 C128.099852,38.9244299 128.263456,39.0890563 128.465271,39.0890563 L139.215714,39.0890563 C140.102226,39.0890563 140.782559,39.305493 141.256712,39.7383664 C141.722404,40.1512206 141.983315,40.7498175 141.969724,41.3741974 C141.991107,41.9952529 141.733097,42.5929113 141.267407,43.0010601 C140.800384,43.4171926 140.117081,43.6246609 139.217497,43.6234702 L125.973293,43.6234702 C124.776621,43.6234702 123.917441,43.3574034 123.395753,42.82528 C122.874066,42.2931566 122.612628,41.431595 122.61144,40.2405952 L122.61144,19.2546049 C122.61144,18.141331 122.8604,17.3042829 123.35832,16.7434607 C123.856929,16.1865994 124.574654,15.8799878 125.319104,15.9058148 C126.07437,15.8769168 126.805076,16.1784842 127.322669,16.7326987 C127.841979,17.287542 128.10104,18.1281774 128.099852,19.2546049 Z" id="路径" fill="#292929"></path>
                <path d="M150.950114,19.2546049 L150.950114,38.721353 C150.950055,38.9209785 151.108294,39.0841874 151.306621,39.0890563 L162.062411,39.0890563 C162.948923,39.0890563 163.629256,39.305493 164.103409,39.7383664 C164.569101,40.1512206 164.830012,40.7498175 164.816422,41.3741974 C164.837034,41.9951055 164.579162,42.5924454 164.114104,43.0010601 C163.645893,43.4171926 162.96259,43.6246609 162.064194,43.6234702 L148.81999,43.6234702 C147.624506,43.6234702 146.765326,43.3574034 146.242451,42.82528 C145.719575,42.2931566 145.458137,41.431595 145.458137,40.2405952 L145.458137,19.2546049 C145.458137,18.141331 145.707097,17.3042829 146.205017,16.7434607 C146.703627,16.1865994 147.421351,15.8799878 148.165801,15.9058148 C148.921067,15.8769168 149.651774,16.1784842 150.169366,16.7326987 C150.691053,17.287542 150.951303,18.1281774 150.950114,19.2546049 Z" id="路径" fill="#292929"></path>
                <path d="M214.272739,20.6267658 L202.279871,20.6267658 C202.084958,20.6314939 201.928064,20.7893687 201.923365,20.9855007 L201.923365,26.9458806 C201.923365,27.1440044 202.082979,27.3046155 202.279871,27.3046155 L213.294129,27.3046155 C214.131919,27.3046155 214.756993,27.4935492 215.169352,27.8714166 C215.583625,28.2546138 215.80977,28.8015404 215.78789,29.3673411 C215.808352,29.9368464 215.586615,30.4881305 215.178264,30.8829959 C214.771847,31.2716254 214.143802,31.466538 213.294129,31.4677338 L202.279871,31.4677338 C202.084958,31.4724619 201.928064,31.6303367 201.923365,31.8264687 L201.923365,38.8451165 C201.928064,39.0412485 202.084958,39.1991233 202.279871,39.2038514 L214.698764,39.2038514 C215.559132,39.2038514 216.208567,39.4047429 216.64707,39.806526 C217.090112,40.2220001 217.329871,40.8120323 217.303041,41.420833 C217.323697,42.0154727 217.083879,42.5892578 216.64707,42.9902981 C216.210944,43.3944727 215.561509,43.5959621 214.698764,43.5947716 L199.791458,43.5947716 C198.603105,43.5947716 197.743925,43.3287046 197.213919,42.7965812 C196.683913,42.2644578 196.422475,41.4028962 196.429605,40.2118964 L196.429605,19.7568337 C196.406463,19.0909211 196.528133,18.4279571 196.786112,17.8142843 C197.006168,17.3258299 197.396953,16.935793 197.884151,16.7183493 C198.49019,16.4682718 199.142191,16.350875 199.796806,16.3739638 L214.278086,16.3739638 C215.153903,16.3739638 215.803339,16.5694743 216.226392,16.9604953 C216.653217,17.3521506 216.886701,17.9132595 216.864539,18.4940869 C216.88858,19.0804684 216.655221,19.6478363 216.226392,20.0456153 C215.798585,20.4330489 215.147367,20.6267658 214.272739,20.6267658 Z" id="路径" fill="#292929"></path>
                <path d="M242.245995,35.4461036 C242.266853,37.0194428 241.826668,38.5641082 240.980398,39.8872414 C240.137855,41.2026026 238.903155,42.2309759 237.276299,42.9723613 C235.649442,43.7137467 233.721932,44.0856352 231.493769,44.0880268 C228.821161,44.0880268 226.616765,43.579819 224.88058,42.5634035 C223.659677,41.8462701 222.628729,40.8433342 221.875233,39.6397143 C221.105179,38.4200157 220.719974,37.233799 220.719974,36.0810643 C220.712225,35.4266739 220.969036,34.7971616 221.431601,34.3371174 C221.894165,33.8770732 222.522727,33.6260366 223.172915,33.6416671 C223.71597,33.6283862 224.242812,33.8284738 224.64172,34.1994999 C225.10189,34.666761 225.452127,35.2318686 225.666676,35.8532677 C225.957362,36.6182093 226.332246,37.3479973 226.784322,38.0289947 C227.221584,38.6400287 227.802051,39.1329363 228.474162,39.4639342 C229.201434,39.8418016 230.155682,40.0307353 231.336906,40.0307353 C232.962574,40.0307353 234.28343,39.6498784 235.299472,38.8881647 C236.315515,38.126451 236.823536,37.1752057 236.823536,36.0344288 C236.823536,35.1304169 236.54962,34.3962062 236.001789,33.8317966 C235.404915,33.2383893 234.676749,32.7958077 233.877013,32.5403511 C233.009514,32.2426011 231.849087,31.9263165 230.39573,31.5914973 C228.717116,31.2207201 227.080128,30.6798591 225.509813,29.9771904 C224.272189,29.4240357 223.197191,28.5591549 222.388601,27.4660462 C221.618548,26.4065825 221.233522,25.0912213 221.233522,23.5199626 C221.211492,22.0918884 221.638198,20.6932856 222.452773,19.523656 C223.265607,18.3601592 224.441483,17.463322 225.980401,16.8331444 C227.519319,16.2029668 229.329776,15.8896717 231.411772,15.8932286 C233.075468,15.8932286 234.513376,16.1007274 235.725497,16.5156641 C236.827243,16.8698789 237.851987,17.4317155 238.745104,18.1712255 C239.470729,18.7650844 240.068198,19.5017884 240.500897,20.3361905 C240.852209,21.0206121 241.041339,21.7775625 241.053482,22.547791 C241.053133,23.2061737 240.806176,23.8402335 240.36186,24.3235287 C239.933105,24.8342706 239.298914,25.124042 238.634587,25.1127454 C238.007136,25.1127454 237.531795,24.9549021 237.208563,24.6392154 C236.777738,24.1781302 236.417305,23.6552579 236.139044,23.087687 C235.723901,22.1656094 235.115883,21.3445479 234.356513,20.680576 C233.667268,20.1030129 232.559128,19.8148292 231.032093,19.816025 C229.614387,19.816025 228.471785,20.1287222 227.604287,20.7541167 C226.736788,21.3795111 226.303039,22.1322565 226.303039,23.0123527 C226.291076,23.5199909 226.447218,24.0172188 226.746889,24.4257681 C227.07876,24.8609548 227.501708,25.2173499 227.985748,25.4696866 C228.484921,25.7465301 229.011186,25.9707341 229.556158,26.1387272 C230.084975,26.3001579 230.959604,26.5357271 232.180043,26.8454349 C233.581898,27.1682777 234.965873,27.5652301 236.32621,28.034641 C237.447743,28.409196 238.511116,28.941187 239.484854,29.6148681 C240.341965,30.2209926 241.039434,31.0280964 241.51694,31.9663753 C242.002976,32.909848 242.245995,34.0697574 242.245995,35.4461036 Z" id="路径" fill="#292929"></path>
                <path d="M252.418898,19.2546049 L252.418898,27.8983217 C252.411171,28.0512886 252.500811,28.1923193 252.642054,28.2494125 C252.783297,28.3065056 252.944983,28.2670664 253.044566,28.1512298 L263.187167,17.507566 C263.590071,17.0656211 264.032187,16.6615672 264.508022,16.3004232 C264.937634,16.0216852 265.443057,15.8849761 265.953654,15.9094021 C266.657848,15.8781094 267.345649,16.1290199 267.86631,16.6071415 C268.34012,17.0427235 268.605568,17.6618373 268.595365,18.3075448 C268.595365,19.1135025 268.183006,19.9128834 267.358289,20.7056874 L260.918005,26.8454349 C260.784188,26.9685144 260.763477,27.1730512 260.869876,27.3207586 L268.374331,38.1402025 C268.836673,38.7763304 269.244552,39.4507786 269.593582,40.1562925 C269.851786,40.6796958 269.990634,41.2544924 270,41.8387591 C270.000514,42.44445 269.740495,43.0207238 269.286987,43.4189862 C268.811645,43.866209 268.168152,44.0892226 267.356506,44.0880316 C266.593583,44.0880316 265.97148,43.9242045 265.490196,43.59656 C264.995598,43.2518881 264.5799,42.8048492 264.270945,42.285384 C263.939395,41.740107 263.642306,41.244455 263.37968,40.7984279 L257.140822,31.1323167 C257.083489,31.0388369 256.986752,30.9769423 256.878305,30.964351 C256.769858,30.9517596 256.661656,30.9898596 256.584672,31.0677444 L252.529415,34.9761609 C252.458433,35.0459809 252.418566,35.1417431 252.418898,35.2416247 L252.418898,40.7177126 C252.418898,41.8560979 252.159837,42.7015165 251.641714,43.2539682 C251.125523,43.8047982 250.399051,44.1059577 249.647063,44.0808521 C249.173101,44.0794616 248.708024,43.9513231 248.299469,43.7095615 C247.880491,43.4745123 247.534841,43.1267009 247.301252,42.7051038 C247.12056,42.3267471 247.014042,41.9168892 246.987527,41.497961 C246.950093,41.0387803 246.932268,40.3769145 246.932268,39.5087761 L246.932268,19.2402555 C246.932268,18.1269816 247.175286,17.2899335 247.661323,16.7291113 C248.14736,16.1682891 248.809273,15.8890738 249.647063,15.8914654 C250.402328,15.8625674 251.133035,16.1641348 251.650627,16.7183493 C252.162808,17.2827588 252.418898,18.1281774 252.418898,19.2546049 Z" id="路径" fill="#292929"></path>
                <path d="M171.82355,16.3739638 L178.966151,16.3739638 C180.825925,16.3739638 182.420696,16.5473523 183.750464,16.8941294 C185.092937,17.2491595 186.333281,17.9177616 187.370784,18.8456471 C190.190748,21.2766738 191.600729,24.9698494 191.600729,29.9251738 C191.613276,31.4306203 191.471107,32.9333383 191.176487,34.4093598 C190.919731,35.6848802 190.477673,36.915392 189.864544,38.0612808 C189.270397,39.1497445 188.5026,40.1326093 187.591818,40.9706207 C186.88237,41.6168809 186.07861,42.1498199 185.208574,42.5508478 C184.323933,42.9546268 183.38917,43.2363865 182.429608,43.3884938 C181.319979,43.5571828 180.198856,43.6375494 179.076668,43.6288461 L171.934067,43.6288461 C170.938227,43.6288461 170.187187,43.4769817 169.680948,43.1732528 C169.195157,42.8951788 168.839704,42.4335584 168.693426,41.8907757 C168.52071,41.186991 168.442769,40.4630422 168.461697,39.7383664 L168.461697,19.7568337 C168.461697,18.5670297 168.7267,17.706066 169.256706,17.1739426 C169.786712,16.6418192 170.642326,16.3751596 171.82355,16.3739638 Z M173.948327,21.1092642 L173.413568,26.4077783 L172.477739,29.7978229 L173.796812,33.0031191 L173.951892,38.8720217 C173.956591,39.0681536 174.113485,39.2260284 174.308398,39.2307565 L178.101624,39.2307565 C179.013091,39.2307565 179.726103,39.2056451 180.240661,39.1554222 C180.78858,39.0986427 181.327424,38.9739337 181.844938,38.7841316 C182.374455,38.6003185 182.863997,38.315961 183.287006,37.9464857 C185.12123,36.385989 186.891283,33.6075873 186.891283,29.7906482 C186.891283,27.1001366 185.643511,25.1773177 184.828895,23.8392366 C184.014278,22.5011555 183.028539,21.6491602 181.844938,21.2832506 C180.661338,20.917341 179.235313,20.7343862 177.566864,20.7343862 L174.311963,20.7343862 C174.214109,20.7348478 174.120528,20.7747824 174.052177,20.8452466 C173.983826,20.9157107 173.946416,21.0108164 173.948327,21.1092642 L173.948327,21.1092642 Z" id="形状" fill="#292929"></path>
                <path d="M183.032104,28.5888864 C182.685319,28.5888864 182.372681,28.7990905 182.239972,29.1214808 C182.107263,29.4438711 182.180618,29.8149585 182.425832,30.0617054 C182.671046,30.3084522 183.039828,30.3822661 183.360216,30.2487277 C183.680603,30.1151892 183.889501,29.8005966 183.889501,29.4516438 C183.889501,28.975156 183.505631,28.5888864 183.032104,28.5888864 Z" id="路径" fill="#292929"></path>
                <ellipse id="椭圆形" fill="#292929" cx="179.711249" cy="29.4516438" rx="1" ry="1"></ellipse>
                <ellipse id="椭圆形" fill="#292929" cx="176.390394" cy="29.4516438" rx="1" ry="1"></ellipse>
                <path d="M172.52052,18.8940763 L172.52052,41.1033526 L186.900196,41.1033526 L186.900196,18.8940763 L172.52052,18.8940763 Z M183.393958,37.0352991 L182.784332,35.471215 C182.742789,35.3633955 182.622938,35.3090854 182.51517,35.3492452 C182.003584,35.5286126 180.579341,36.0182857 179.702336,36.0182857 C177.338531,36.0133693 175.164522,34.7149448 174.028029,32.6293119 C172.891537,30.543679 172.972509,28.0010699 174.239372,25.9929343 C175.506235,23.9847987 177.758398,22.829098 180.117666,22.9764792 C183.493779,23.1935138 186.000018,26.0257257 186.190748,29.4911046 C186.42426,33.7510813 183.39574,37.0352991 183.39574,37.0352991 L183.393958,37.0352991 Z" id="形状" fill="#292929"></path>
            </g>
        </g>
    </g>
</svg>