<?xml version="1.0" encoding="UTF-8"?>
<svg width="30px" height="30px" viewBox="0 0 30 30" version="1.1" xmlns="http://www.w3.org/2000/svg" xmlns:xlink="http://www.w3.org/1999/xlink">
    <g id="B端移动端v1.0" stroke="none" stroke-width="1" fill="none" fill-rule="evenodd" fill-opacity="0.203835227">
        <g id="icon/插图" transform="translate(-235.000000, -330.000000)" fill="#000000" fill-rule="nonzero">
            <g id="路径" transform="translate(235.000000, 330.000000)">
                <path d="M29.1106223,26.654983 L26.2183636,29.5470946 C26.2183636,29.5470946 18.7035013,32.7677552 7.96784694,22.03222 C-2.76777701,11.2965482 0.452908655,3.78159774 0.452908655,3.78159774 L3.34506106,0.889440629 C4.65169396,-0.417194394 6.81267426,-0.263623558 7.92138861,1.21466464 L10.6819698,4.89546075 C11.588636,6.10435094 11.4684213,7.79596823 10.3998949,8.86448116 L7.96784694,11.2965482 C7.96784694,11.2965482 7.96784694,13.4436401 12.2620388,17.7378541 C16.5563977,22.03222 18.7035013,22.03222 18.7035013,22.03222 L21.1355796,19.6001377 C22.2039693,18.5315945 23.895599,18.4113492 25.1045783,19.3180472 L28.7852622,22.0786784 C30.2635783,23.1873035 30.4172248,25.3483784 29.1106223,26.654983 Z"></path>
                <path d="M3.34506106,0.889501359 L2.60002737,1.63453626 L9.0413987,10.2230555 L10.3998949,8.86455707 C11.4684061,7.79602896 11.588636,6.10442685 10.6819698,4.89553666 L7.92137343,1.21474055 C6.81265908,-0.263547646 4.65169396,-0.417118482 3.34506106,0.889501359 Z"></path>
                <path d="M29.1104705,26.654983 L28.3654672,27.3999876 L19.777053,20.9586665 L21.1354277,19.6001377 C22.2039693,18.5315945 23.895599,18.4113492 25.1044265,19.3180472 L28.7852622,22.0786784 C30.2635783,23.1874553 30.417073,25.3483784 29.1104705,26.654983 Z"></path>
            </g>
        </g>
    </g>
</svg>