<?xml version="1.0" encoding="UTF-8"?>
<svg width="16px" height="14px" viewBox="0 0 16 14" version="1.1" xmlns="http://www.w3.org/2000/svg" xmlns:xlink="http://www.w3.org/1999/xlink">
    <title>Hi~</title>
    <g id="B端移动端v1.0" stroke="none" stroke-width="1" fill="none" fill-rule="evenodd">
        <g id="会话界面评分" transform="translate(-194.000000, -308.000000)" fill="#FFFFFF" fill-rule="nonzero">
            <g id="编组-16" transform="translate(96.000000, 282.000000)">
                <g id="编组-6" transform="translate(84.000000, 16.000000)">
                    <g id="Hi~" transform="translate(14.000000, 10.000000)">
                        <path d="M10.4680323,0.166419019 C10.6004552,2.32986627 10.6666667,4.59732541 10.6666667,6.96879643 C10.6666667,9.21545319 10.6004552,11.1084695 10.4680323,12.6478455 C10.4283054,13.063893 10.3687151,13.3273898 10.2892613,13.4383358 C10.2098076,13.5492818 10.0310366,13.6324913 9.75294848,13.6879643 C9.19677219,13.7850421 8.54789986,13.833581 7.80633147,13.833581 C7.72687772,12.6409113 7.68715084,10.8727093 7.68715084,8.52897474 L7.68715084,7.21842496 C6.08483344,7.37097573 4.51562177,7.46805349 2.97951583,7.50965825 C2.95303124,9.64536899 2.87357749,11.3442298 2.74115456,12.6062407 C2.70142768,13.0361565 2.63190565,13.337791 2.53258845,13.5111441 C2.43327126,13.6844973 2.25118974,13.7989104 1.98634389,13.8543834 C1.4301676,13.9514611 0.814400993,14 0.139044072,14 C0.046348024,12.5299653 0,10.1862308 0,6.96879643 C0,3.86230807 0.0397268777,1.66419019 0.119180633,0.374442793 C0.754810677,0.235760277 1.26463894,0.166419019 1.64866543,0.166419019 C2.00620732,0.166419019 2.37699152,0.221892026 2.761018,0.332838039 C2.88019863,1.95542348 2.95303124,3.72362556 2.97951583,5.63744428 C4.4626526,5.51263001 6.03186427,5.42942051 7.68715084,5.38781575 C7.70039313,3.46012878 7.73349886,1.73353145 7.78646803,0.208023774 C8.42209808,0.069341258 8.93854749,0 9.33581626,0 C9.70660046,0 10.0840058,0.0554730064 10.4680323,0.166419019 Z" id="路径"></path>
                        <path d="M14.2436412,3.25147929 C13.7153057,3.25147929 13.2833556,3.10996055 12.9477912,2.82692308 C12.6122267,2.5438856 12.4444444,2.11932939 12.4444444,1.55325444 C12.4444444,1.11143984 12.6193664,0.742110454 12.9692102,0.445266272 C13.319054,0.148422091 13.7438643,0 14.2436412,0 C14.7434181,0 15.1610888,0.144970414 15.4966533,0.434911243 C15.8322178,0.724852071 16,1.09763314 16,1.55325444 C16,2.11932939 15.8393574,2.5438856 15.5180723,2.82692308 C15.1967871,3.10996055 14.7719768,3.25147929 14.2436412,3.25147929 Z M12.8942436,13.9378698 C12.7086122,12.3639053 12.6157965,10.5 12.6157965,8.34615385 C12.6157965,6.82741617 12.6586345,5.50197239 12.7443106,4.36982249 C13.2440875,4.25936884 13.7224453,4.20414201 14.1793842,4.20414201 C14.6220437,4.20414201 15.0932619,4.25936884 15.5930388,4.36982249 C15.7501116,5.84714004 15.8286479,7.4418146 15.8286479,9.15384615 C15.8286479,10.3550296 15.7786702,11.6321499 15.6787149,12.9852071 C15.6358768,13.5374753 15.4216867,13.8481262 15.0361446,13.9171598 C14.7933958,13.9723866 14.4506917,14 14.0080321,14 C13.6367693,14 13.2655065,13.9792899 12.8942436,13.9378698 Z" id="形状"></path>
                    </g>
                </g>
            </g>
        </g>
    </g>
</svg>