<?xml version="1.0" encoding="UTF-8"?>
<svg width="42px" height="42px" viewBox="0 0 42 42" version="1.1" xmlns="http://www.w3.org/2000/svg" xmlns:xlink="http://www.w3.org/1999/xlink">
    <g id="B端移动端v1.0" stroke="none" stroke-width="1" fill="none" fill-rule="evenodd">
        <g id="会话界面" transform="translate(-196.000000, -1485.000000)" fill="#FFC020">
            <g id="编组-3" transform="translate(0.000000, 1458.000000)">
                <g id="评分" transform="translate(196.000000, 27.000000)">
                    <path d="M21.0010287,42 C20.2565683,42 19.5308364,41.798415 18.8987474,41.4139971 C18.2104727,40.996763 17.6673443,40.392008 17.325548,39.6606764 L13.036707,30.5190311 L3.45236447,29.0516799 C1.94003295,28.8219667 0.699265601,27.7765376 0.212322944,26.3232504 C-0.274619713,24.8699632 0.0905872796,23.2900993 1.15811541,22.1931019 L8.2141018,14.950106 L6.54725962,4.73021543 C6.35529185,3.54883358 6.68772385,2.35338765 7.46027711,1.44391115 C8.2375125,0.529746624 9.36590847,0.00468802322 10.5598544,0.00468802322 C11.243447,0.00468802322 11.9223574,0.182832905 12.5263536,0.515682554 L21.0010287,5.20370577 L29.4757038,0.510994531 C30.0796999,0.178144882 30.7586104,0 31.442203,0 C32.6361489,0 33.7645449,0.5250586 34.5417803,1.43922313 C35.3143335,2.34869963 35.6467655,3.54414555 35.4547977,4.7255274 L33.7879556,14.945418 L40.8439419,22.1884139 C41.9114701,23.2854113 42.2719949,24.8652751 41.7897344,26.3185623 C41.3027918,27.7718495 40.0620244,28.8172787 38.5496929,29.0469919 L28.9653504,30.5190311 L24.6765093,39.6606764 C24.334713,40.392008 23.7915847,40.996763 23.10331,41.4139971 C22.4712209,41.798415 21.7454891,42 21.0010287,42 L21.0010287,42 L21.0010287,42 Z" id="Shape" transform="translate(21.000000, 21.000000) scale(1, -1) translate(-21.000000, -21.000000) "></path>
                </g>
            </g>
        </g>
    </g>
</svg>