<?xml version="1.0" encoding="UTF-8"?>
<svg width="44px" height="44px" viewBox="0 0 44 44" version="1.1" xmlns="http://www.w3.org/2000/svg" xmlns:xlink="http://www.w3.org/1999/xlink">
    <title>编组备份 6</title>
    <defs>
        <polygon id="path-1" points="8.58572791e-16 0 44 0 44 44 8.58572791e-16 44"></polygon>
    </defs>
    <g id="B端移动端v1.0" stroke="none" stroke-width="1" fill="none" fill-rule="evenodd">
        <g id="会话界面评分" transform="translate(-506.000000, -534.000000)">
            <g id="编组-16" transform="translate(96.000000, 282.000000)">
                <g id="编组-10" transform="translate(106.000000, 252.000000)">
                    <g id="编组" transform="translate(304.000000, 0.000000)">
                        <mask id="mask-2" fill="white">
                            <use xlink:href="#path-1"></use>
                        </mask>
                        <g id="Clip-2"></g>
                        <path d="M22.6331336,0.41313749 L28.8845359,13.7096774 C28.9873359,13.9284404 29.1862027,14.080091 29.4161361,14.1151519 L43.3946746,16.247357 C43.9738082,16.335674 44.2050749,17.0827996 43.7860081,17.511578 L33.6710043,27.8615347 C33.5046043,28.0317304 33.4287376,28.2770865 33.4679376,28.517544 L35.8558051,43.1319109 C35.9546718,43.7373234 35.3492716,44.1990632 34.8313381,43.9132576 L22.3286001,37.0132631 C22.1228667,36.8997527 21.8771333,36.8997527 21.6713999,37.0132631 L9.16866191,43.9132576 C8.65066171,44.1990632 8.04526149,43.7373234 8.14419486,43.1319109 L10.5319957,28.517544 C10.5712624,28.2770865 10.4953291,28.0317304 10.328929,27.8615347 L0.213991918,17.511578 C-0.205074904,17.0827996 0.0261918483,16.335674 0.605325396,16.247357 L14.5837972,14.1151519 C14.8137973,14.080091 15.0125974,13.9284404 15.1154641,13.7096774 L21.3667998,0.41313749 C21.6258665,-0.137759151 22.3741335,-0.137759151 22.6331336,0.41313749" id="Fill-1" fill="#FFC020" mask="url(#mask-2)"></path>
                    </g>
                </g>
            </g>
        </g>
    </g>
</svg>