<?xml version="1.0" encoding="UTF-8"?>
<svg width="332px" height="284px" viewBox="0 0 332 284" version="1.1" xmlns="http://www.w3.org/2000/svg" xmlns:xlink="http://www.w3.org/1999/xlink">
    <defs>
        <path d="M0,8.85094851 L0,37.3279133 C0,42.2536585 3.90138249,46.1788618 8.79723502,46.1788618 L8.79723502,46.1788618 C13.6938525,46.1788618 17.59447,42.2536585 17.59447,37.3279133 L17.59447,37.3279133 L17.59447,8.85094851 C17.59447,3.92520325 13.6938525,0 8.79723502,0 L8.79723502,0 C3.90138249,0 0,3.92520325 0,8.85094851" id="path-1"></path>
        <path d="M2.58179724,2.59756098 C-0.860599078,6.06097561 -0.860599078,11.6786341 2.58179724,15.1420488 L2.58179724,15.1420488 L22.6234286,35.3075881 C26.0658249,38.7710027 31.6509217,38.7710027 35.093318,35.3075881 L35.093318,35.3075881 C38.5357143,31.8441734 38.5357143,26.2249756 35.093318,22.761561 L35.093318,22.761561 L15.0509217,2.59756098 C13.3297235,0.865853659 11.0730415,0 8.81635945,0 L8.81635945,0 C6.55967742,0 4.30299539,0.865853659 2.58179724,2.59756098" id="path-3"></path>
        <path d="M22.6249585,2.59756098 L2.58179724,22.7623306 C-0.860599078,26.2257453 -0.860599078,31.8434038 2.58179724,35.3068184 L2.58179724,35.3068184 C6.02419355,38.7702331 11.6085253,38.7702331 15.0509217,35.3068184 L15.0509217,35.3068184 L35.093318,15.1428184 C38.5357143,11.6794038 38.5357143,6.06097561 35.093318,2.59756098 L35.093318,2.59756098 C33.3721198,0.865853659 31.1154378,2.18747032e-14 28.8587558,2.18747032e-14 L28.8587558,2.18747032e-14 C26.6020737,2.18747032e-14 24.3461567,0.865853659 22.6249585,2.59756098" id="path-5"></path>
        <path d="M114.699115,4.23460163 C116.174756,6.37037398 117.652691,8.50691599 117.500461,8.46766396 L117.500461,8.46766396 L58.8267281,3.31179404 L26.3159724,36.9453984 L42.6092166,65.4993279 L4.36036866,101.51807 L2.17419528e-14,117.142688 L5.66159447,125.685778 L106.562055,134.536726 C106.732645,134.55058 106.90247,134.558276 107.070765,134.559816 L107.070765,134.559816 L107.205401,134.559816 C110.757189,134.526721 113.773493,131.852195 114.134562,128.14942 L114.134562,128.14942 L123.84977,16.0871762 C123.864304,15.9155447 123.873484,15.7254417 123.873484,15.5199458 L123.873484,15.5199458 L123.873484,15.432206 C123.854359,11.3484553 121.092793,1.38305691 111.916129,0.00230894309 L111.916129,0.00230894309 C111.913069,0 111.910009,0 111.907714,0 L111.907714,0 C111.776138,0 113.236479,2.11730081 114.699115,4.23460163" id="path-7"></path>
        <path d="M21.9540737,33.6336043 L38.2488479,62.1875339 L2.17419528e-14,98.2070461 L1.29969585,122.297019 L102.200157,131.224932 C106.025806,131.532022 109.391705,128.76206 109.773429,124.836856 L109.773429,124.836856 L119.488636,12.7761518 C119.871124,8.92791328 117.041475,5.54069377 113.139327,5.15663957 L113.139327,5.15663957 L54.4655945,0 L21.9540737,33.6336043 Z" id="path-9"></path>
        <linearGradient x1="81.7391656%" y1="99.7322466%" x2="27.671347%" y2="14.4320386%" id="linearGradient-11">
            <stop stop-color="#D2D9FF" offset="0%"></stop>
            <stop stop-color="#EBEFFF" offset="100%"></stop>
        </linearGradient>
        <path d="M1.60645161,0 L43.3749585,2.46287263 C46.1281106,2.46287263 48.2700461,4.61788618 48.3473088,7.31165312 C48.3473088,10.0823848 46.2053733,12.2366287 43.5279539,12.3143631 C43.4703894,12.3143631 43.4128727,12.3095047 43.3553918,12.3022171 L43.0108414,12.2487747 L43.0108414,12.2487747 L42.8387097,12.2366287 L4.89661751,10.0054201 L0,1.69322493 L1.60645161,0 Z" id="path-12"></path>
        <path d="M9.79170507,0 L51.7124424,2.46364228 C54.4671244,2.46364228 56.6082949,4.61788618 56.6847926,7.31165312 C56.6847926,10.0831545 54.5428571,12.238168 51.8654378,12.3143631 C51.8080645,12.3143631 51.7507391,12.3096009 51.6934375,12.3024577 L51.3497238,12.2500735 L51.3497238,12.2500735 L51.1777235,12.238168 L0.764976959,9.23577236 C0.458986175,9.23577236 0.229493088,9.15957724 0,9.15957724 L0,9.15957724 L9.79170507,0 Z" id="path-14"></path>
        <path d="M-2.17419528e-14,0 L39.0910876,2.30894309 C41.8442396,2.30894309 43.9861751,4.46472629 44.0634378,7.15849322 C44.0634378,9.92922493 41.9215023,12.0842385 39.2440829,12.1612033 C39.0138249,12.1612033 38.7843318,12.0842385 38.5548387,12.0842385 L38.5548387,12.0842385 L-2.17419528e-14,9.85226016 L3.51965899,6.38884553 L-2.17419528e-14,0 Z" id="path-16"></path>
        <path d="M0,14.6240759 L0,14.7071978 C0,14.9234688 0.00535483871,15.1266558 0.0122396313,15.3152195 L0.0122396313,15.3152195 L3.99011982,147.848553 C4.14311521,151.697561 7.27952074,154.775382 11.1809032,154.622222 L11.1809032,154.622222 L100.60671,151.928455 L107.491502,143.847154 L87.6021014,126.760206 L115.676756,87.4312087 L93.7984147,62.7262873 L111.929134,25.0127805 L83.0895023,25.8601626 C81.0997972,25.9371274 79.1873548,25.0905149 77.8103963,23.6281843 L77.8103963,23.6281843 L63.8878157,8.77398374 C62.5873548,7.31165312 60.5984147,6.54200542 58.6094747,6.54200542 L58.6094747,6.54200542 L12.5586267,7.92660163 L13.7053272,0 C1.62404608,1.30994038 0.0107096774,10.3279024 0,14.6240759" id="path-18"></path>
        <path d="M6.80969827,1.53852575 C2.98557845,1.69245528 -0.0750943569,4.84878049 0.00140333892,8.77398374 L0.00140333892,8.77398374 L3.97928352,141.307317 C4.13227891,145.155556 7.26868444,148.234146 11.1700669,148.080217 L11.1700669,148.080217 L100.595873,145.38645 L87.5912651,120.142005 L115.665919,80.8122385 L93.8640761,56.1842818 L111.99403,18.4715447 L83.1543987,19.3181572 C81.1654586,19.395122 79.2530162,18.5485095 77.8760577,17.0861789 L77.8760577,17.0861789 L63.9534771,2.23120867 C62.6530162,0.769647696 60.6640761,0 58.6751361,0 L58.6751361,0 L6.80969827,1.53852575 Z" id="path-20"></path>
        <linearGradient x1="26.9643856%" y1="104.035842%" x2="59.1013241%" y2="9.54020043%" id="linearGradient-22">
            <stop stop-color="#D2D9FF" offset="0%"></stop>
            <stop stop-color="#EBEFFF" offset="100%"></stop>
        </linearGradient>
        <path d="M47.5224975,-2.18747032e-14 L42.856138,9.69679133 L43.0091334,9.77452575 L5.22003665,9.85149051 L4.53079241,9.85149051 C1.85337306,9.62059621 -0.212064731,7.31165312 0.017428357,4.61788618 C0.247686422,1.92411924 2.5426173,-0.153929539 5.22003665,0.0769647696 L47.5224975,-2.18747032e-14 Z" id="path-23"></path>
        <path d="M55.8607463,0 L48.7464606,9.85226016 C45.4969762,9.86611382 42.0070252,9.87994254 38.468459,9.89330645 L37.2873995,9.89774326 C23.0993951,9.95076398 8.47461509,9.99556561 5.69153912,10.0039957 L5.48729065,10.0046134 C5.45790552,10.0047022 5.43087046,10.0047837 5.40621837,10.004858 L4.53079241,10.0054201 C1.85337306,9.85226016 -0.212064731,7.4663523 0.017428357,4.77258537 C0.170423749,2.07881843 2.54185232,0 5.21927167,0.231663957 L5.21927167,0.231663957 L55.8607463,0 Z" id="path-25"></path>
        <path d="M5.21927167,0.0175405622 L64.8109767,0.248434871 L73.532479,10.0229606 L5.21927167,9.79206631 L4.53079241,9.79206631 C1.85337306,9.56040235 -0.212064731,7.25145926 0.017428357,4.55769232 C0.246921445,1.86392539 2.54185232,-0.213353747 5.21927167,0.0175405622 Z" id="path-27"></path>
    </defs>
    <g id="B端移动端v1.0" stroke="none" stroke-width="1" fill="none" fill-rule="evenodd">
        <g id="icon/插图" transform="translate(-36.000000, -670.000000)">
            <g id="wrong" transform="translate(36.000000, 670.000000)">
                <ellipse id="椭圆形" fill="#A0A9E0" opacity="0.162722565" cx="166" cy="221.273713" rx="166" ry="62.7262873"></ellipse>
                <g id="编组" transform="translate(43.603687, 0.000000)">
                    <g transform="translate(127.533899, 0.000000)">
                        <mask id="mask-2" fill="white">
                            <use xlink:href="#path-1"></use>
                        </mask>
                        <g id="Clip-2"></g>
                        <path d="M0,8.85094851 L0,37.3279133 C0,42.2536585 3.90138249,46.1788618 8.79723502,46.1788618 L8.79723502,46.1788618 C13.6938525,46.1788618 17.59447,42.2536585 17.59447,37.3279133 L17.59447,37.3279133 L17.59447,8.85094851 C17.59447,3.92520325 13.6938525,0 8.79723502,0 L8.79723502,0 C3.90138249,0 0,3.92520325 0,8.85094851" id="Fill-1" fill="#C9D4FE" mask="url(#mask-2)"></path>
                    </g>
                    <g transform="translate(48.608166, 23.339566)">
                        <mask id="mask-4" fill="white">
                            <use xlink:href="#path-3"></use>
                        </mask>
                        <g id="Clip-6"></g>
                        <path d="M2.58179724,2.59756098 C-0.860599078,6.06097561 -0.860599078,11.6786341 2.58179724,15.1420488 L2.58179724,15.1420488 L22.6234286,35.3075881 C26.0658249,38.7710027 31.6509217,38.7710027 35.093318,35.3075881 L35.093318,35.3075881 C38.5357143,31.8441734 38.5357143,26.2249756 35.093318,22.761561 L35.093318,22.761561 L15.0509217,2.59756098 C13.3297235,0.865853659 11.0730415,0 8.81635945,0 L8.81635945,0 C6.55967742,0 4.30299539,0.865853659 2.58179724,2.59756098" id="Fill-5" fill="#C9D4FE" mask="url(#mask-4)"></path>
                    </g>
                    <g transform="translate(178.729982, 34.884282)">
                        <mask id="mask-6" fill="white">
                            <use xlink:href="#path-5"></use>
                        </mask>
                        <g id="Clip-10"></g>
                        <path d="M22.6249585,2.59756098 L2.58179724,22.7623306 C-0.860599078,26.2257453 -0.860599078,31.8434038 2.58179724,35.3068184 L2.58179724,35.3068184 C6.02419355,38.7702331 11.6085253,38.7702331 15.0509217,35.3068184 L15.0509217,35.3068184 L35.093318,15.1428184 C38.5357143,11.6794038 38.5357143,6.06097561 35.093318,2.59756098 L35.093318,2.59756098 C33.3721198,0.865853659 31.1154378,2.18747032e-14 28.8587558,2.18747032e-14 L28.8587558,2.18747032e-14 C26.6020737,2.18747032e-14 24.3461567,0.865853659 22.6249585,2.59756098" id="Fill-9" fill="#C9D4FE" mask="url(#mask-6)"></path>
                    </g>
                    <g transform="translate(120.725604, 95.741864)">
                        <mask id="mask-8" fill="white">
                            <use xlink:href="#path-7"></use>
                        </mask>
                        <g id="Clip-14"></g>
                        <path d="M114.699115,4.23460163 C116.174756,6.37037398 117.652691,8.50691599 117.500461,8.46766396 L117.500461,8.46766396 L58.8267281,3.31179404 L26.3159724,36.9453984 L42.6092166,65.4993279 L4.36036866,101.51807 L2.17419528e-14,117.142688 L5.66159447,125.685778 L106.562055,134.536726 C106.732645,134.55058 106.90247,134.558276 107.070765,134.559816 L107.070765,134.559816 L107.205401,134.559816 C110.757189,134.526721 113.773493,131.852195 114.134562,128.14942 L114.134562,128.14942 L123.84977,16.0871762 C123.864304,15.9155447 123.873484,15.7254417 123.873484,15.5199458 L123.873484,15.5199458 L123.873484,15.432206 C123.854359,11.3484553 121.092793,1.38305691 111.916129,0.00230894309 L111.916129,0.00230894309 C111.913069,0 111.910009,0 111.907714,0 L111.907714,0 C111.776138,0 113.236479,2.11730081 114.699115,4.23460163" id="Fill-13" fill="#A0A9E0" mask="url(#mask-8)"></path>
                    </g>
                    <g transform="translate(119.425908, 90.510569)">
                        <mask id="mask-10" fill="white">
                            <use xlink:href="#path-9"></use>
                        </mask>
                        <g id="Clip-16"></g>
                        <path d="M21.9540737,33.6336043 L38.2488479,62.1875339 L0,98.2070461 L1.29969585,122.297019 L102.200157,131.224932 C106.025806,131.532022 109.391705,128.76206 109.773429,124.836856 L119.488636,12.7761518 C119.871124,8.92791328 117.041475,5.54069377 113.139327,5.15663957 L54.4655945,0 L21.9540737,33.6336043 Z" id="Fill-15" fill="url(#linearGradient-11)" mask="url(#mask-10)"></path>
                    </g>
                    <g transform="translate(130.211318, 122.527913)">
                        <g transform="translate(11.092166, 0.000000)">
                            <mask id="mask-13" fill="white">
                                <use xlink:href="#path-12"></use>
                            </mask>
                            <g id="Clip-18"></g>
                            <path d="M4.89661751,10.0054201 L42.8387097,12.2366287 C43.0682028,12.2366287 43.2976959,12.3143631 43.5279539,12.3143631 C46.2053733,12.2366287 48.3473088,10.0823848 48.3473088,7.31165312 C48.2700461,4.61788618 46.1281106,2.46287263 43.3749585,2.46287263 L1.60645161,0 L0,1.69322493 L4.89661751,10.0054201 Z" id="Fill-17" fill="#ACB5EA" mask="url(#mask-13)"></path>
                        </g>
                        <g transform="translate(0.000000, 46.870775)">
                            <mask id="mask-15" fill="white">
                                <use xlink:href="#path-14"></use>
                            </mask>
                            <g id="Clip-20"></g>
                            <path d="M0,9.15957724 C0.229493088,9.15957724 0.458986175,9.23577236 0.764976959,9.23577236 L51.1777235,12.238168 C51.4072166,12.238168 51.6359447,12.3143631 51.8654378,12.3143631 C54.5428571,12.238168 56.6847926,10.0831545 56.6847926,7.31165312 C56.6082949,4.61788618 54.4671244,2.46364228 51.7124424,2.46364228 L9.79170507,0 L0,9.15957724 Z" id="Fill-19" fill="#ACB5EA" mask="url(#mask-15)"></path>
                        </g>
                        <g transform="translate(23.790783, 23.781344)">
                            <mask id="mask-17" fill="white">
                                <use xlink:href="#path-16"></use>
                            </mask>
                            <g id="Clip-22"></g>
                            <path d="M-2.17419528e-14,9.85226016 L38.5548387,12.0842385 C38.7843318,12.0842385 39.0138249,12.1612033 39.2440829,12.1612033 C41.9215023,12.0842385 44.0634378,9.92922493 44.0634378,7.15849322 C43.9861751,4.46472629 41.8442396,2.30894309 39.0910876,2.30894309 L-2.17419528e-14,0 L3.51965899,6.38884553 L-2.17419528e-14,9.85226016 Z" id="Fill-21" fill="#ACB5EA" mask="url(#mask-17)"></path>
                        </g>
                    </g>
                    <g transform="translate(0.000000, 75.040650)">
                        <mask id="mask-19" fill="white">
                            <use xlink:href="#path-18"></use>
                        </mask>
                        <g id="Clip-24"></g>
                        <path d="M0,14.6240759 L0,14.7071978 C0,14.9234688 0.00535483871,15.1266558 0.0122396313,15.3152195 L0.0122396313,15.3152195 L3.99011982,147.848553 C4.14311521,151.697561 7.27952074,154.775382 11.1809032,154.622222 L11.1809032,154.622222 L100.60671,151.928455 L107.491502,143.847154 L87.6021014,126.760206 L115.676756,87.4312087 L93.7984147,62.7262873 L111.929134,25.0127805 L83.0895023,25.8601626 C81.0997972,25.9371274 79.1873548,25.0905149 77.8103963,23.6281843 L77.8103963,23.6281843 L63.8878157,8.77398374 C62.5873548,7.31165312 60.5984147,6.54200542 58.6094747,6.54200542 L58.6094747,6.54200542 L12.5586267,7.92660163 L13.7053272,0 C1.62404608,1.30994038 0.0107096774,10.3279024 0,14.6240759" id="Fill-23" fill="#A0A9E0" mask="url(#mask-19)"></path>
                    </g>
                    <g transform="translate(6.895629, 73.578320)">
                        <mask id="mask-21" fill="white">
                            <use xlink:href="#path-20"></use>
                        </mask>
                        <g id="Clip-26"></g>
                        <path d="M6.80969827,1.53852575 C2.98557845,1.69245528 -0.0750943569,4.84878049 0.00140333892,8.77398374 L0.00140333892,8.77398374 L3.97928352,141.307317 C4.13227891,145.155556 7.26868444,148.234146 11.1700669,148.080217 L11.1700669,148.080217 L100.595873,145.38645 L87.5912651,120.142005 L115.665919,80.8122385 L93.8640761,56.1842818 L111.99403,18.4715447 L83.1543987,19.3181572 C81.1654586,19.395122 79.2530162,18.5485095 77.8760577,17.0861789 L77.8760577,17.0861789 L63.9534771,2.23120867 C62.6530162,0.769647696 60.6640761,0 58.6751361,0 L58.6751361,0 L6.80969827,1.53852575 Z" id="Fill-25" fill="url(#linearGradient-22)" mask="url(#mask-21)"></path>
                    </g>
                    <g transform="translate(48.035364, 120.065041)">
                        <g transform="translate(9.791705, -0.000000)">
                            <mask id="mask-24" fill="white">
                                <use xlink:href="#path-23"></use>
                            </mask>
                            <g id="Clip-28"></g>
                            <path d="M43.0091334,9.77452575 L5.22003665,9.85149051 L4.53079241,9.85149051 C1.85337306,9.62059621 -0.212064731,7.31165312 0.017428357,4.61788618 C0.247686422,1.92411924 2.5426173,-0.153929539 5.22003665,0.0769647696 L47.5224975,-2.18747032e-14 L42.856138,9.69679133 L43.0091334,9.77452575 Z" id="Fill-27" fill="#ACB5EA" mask="url(#mask-24)"></path>
                        </g>
                        <g transform="translate(9.944700, 46.639881)">
                            <mask id="mask-26" fill="white">
                                <use xlink:href="#path-25"></use>
                            </mask>
                            <g id="Clip-30"></g>
                            <path d="M55.8607463,0 L5.21927167,0.231663957 C2.54185232,0 0.170423749,2.07881843 0.017428357,4.77258537 C-0.212064731,7.4663523 1.85337306,9.85226016 4.53079241,10.0054201 L5.21927167,10.0054201 C5.21927167,10.0054201 30.6937694,9.92922493 48.7464606,9.85226016 L55.8607463,0 Z" id="Fill-29" fill="#ACB5EA" mask="url(#mask-26)"></path>
                        </g>
                        <g transform="translate(0.000000, 23.225820)">
                            <mask id="mask-28" fill="white">
                                <use xlink:href="#path-27"></use>
                            </mask>
                            <g id="Clip-32"></g>
                            <path d="M73.532479,10.0229606 L5.21927167,9.79206631 L4.53079241,9.79206631 C1.85337306,9.56040235 -0.212064731,7.25145926 0.017428357,4.55769232 C0.246921445,1.86392539 2.54185232,-0.213353747 5.21927167,0.0175405622 L64.8109767,0.248434871 L73.532479,10.0229606 Z" id="Fill-31" fill="#ACB5EA" mask="url(#mask-28)"></path>
                        </g>
                    </g>
                </g>
            </g>
        </g>
    </g>
</svg>