<?xml version="1.0" encoding="UTF-8"?>
<svg width="24px" height="24px" viewBox="0 0 24 24" version="1.1" xmlns="http://www.w3.org/2000/svg" xmlns:xlink="http://www.w3.org/1999/xlink">
    <g id="B端移动端v1.0" stroke="none" stroke-width="1" fill="none" fill-rule="evenodd" opacity="0.652227493">
        <g id="icon/插图" transform="translate(-680.000000, -396.000000)" fill="#000000" fill-rule="nonzero">
            <g id="close-circle备份" transform="translate(680.000000, 396.000000)">
                <path d="M12,0 C5.371875,0 0,5.371875 0,12 C0,18.628125 5.371875,24 12,24 C18.628125,24 24,18.628125 24,12 C24,5.371875 18.628125,0 12,0 Z M16.8117187,15.6304687 C17.1398437,15.9609375 17.1398437,16.4953125 16.809375,16.8234375 C16.6453125,16.9875 16.4296875,17.0695312 16.2140625,17.0695312 C15.9984375,17.0695312 15.7804687,16.9875 15.6164062,16.8210937 L12,13.1953125 L8.38359375,16.8210937 C8.21953125,16.9875 8.0015625,17.0695312 7.7859375,17.0695312 C7.5703125,17.0695312 7.3546875,16.9875 7.190625,16.8234375 C6.86015625,16.4953125 6.86015625,15.9609375 7.18828125,15.6304687 L10.809375,12 L7.18828125,8.36953125 C6.86015625,8.0390625 6.86015625,7.5046875 7.190625,7.1765625 C7.52109375,6.8484375 8.05546875,6.8484375 8.38359375,7.17890625 L12,10.8046875 L15.6164062,7.1765625 C15.9445312,6.84609375 16.4789062,6.84609375 16.809375,7.17421875 C17.1398437,7.50234375 17.1398437,8.03671875 16.8117187,8.3671875 L13.190625,12 L16.8117187,15.6304687 Z" id="Shape"></path>
            </g>
        </g>
    </g>
</svg>