<?xml version="1.0" encoding="UTF-8"?>
<svg width="44px" height="44px" viewBox="0 0 44 44" version="1.1" xmlns="http://www.w3.org/2000/svg" xmlns:xlink="http://www.w3.org/1999/xlink">
    <g id="B端移动端v1.0" stroke="none" stroke-width="1" fill="none" fill-rule="evenodd" fill-opacity="0.204463505">
        <g id="chat2左滑块" transform="translate(-541.000000, -1485.000000)" fill="#000000" fill-rule="nonzero">
            <g id="标签栏" transform="translate(0.000000, 1458.000000)">
                <g id="编组-5" transform="translate(375.000000, 0.000000)">
                    <g id="Vector" transform="translate(166.000000, 27.000002)">
                        <path d="M41.4286125,30.2678889 L39.7232566,29.2235556 L39.7232566,29.2235556 L41.4286125,30.2678889 Z M39.3076385,33.732 L41.0131056,34.7764444 L41.0131056,34.7764444 L39.3076385,33.732 Z M2.57136019,13.732 L0.865933123,12.6875556 L0.865933123,12.6875556 L2.57136019,13.732 Z M4.69233419,10.2679333 L6.39775682,11.3123333 L6.39775682,11.3123333 L4.69233419,10.2679333 Z M10.4869338,8.80383333 L11.4430108,7.04723333 L11.4430108,7.04723333 L10.4869338,8.80383333 Z M4.12402292,19.1961111 L3.1679126,20.9527778 L3.1679126,20.9527778 L4.12402292,19.1961111 Z M33.5130945,35.1961111 L32.5569842,36.9527778 L32.5569842,36.9527778 L33.5130945,35.1961111 Z M39.8760165,24.8037778 L38.9199061,26.5604444 L38.9199061,26.5604444 L39.8760165,24.8037778 Z M4.69233419,33.7321111 L2.98690045,34.7764444 L2.98690045,34.7764444 L4.69233419,33.7321111 Z M2.57136019,30.268 L4.27678282,29.2235556 L4.27678282,29.2235556 L2.57136019,30.268 Z M39.3076385,10.2679667 L41.0131056,9.22353333 L41.0131056,9.22353333 L39.3076385,10.2679667 Z M41.4286125,13.7321111 L39.7232566,14.7764444 L39.7232566,14.7764444 L41.4286125,13.7321111 Z M39.8760165,19.1962222 L40.8321268,20.9527778 L40.8321268,20.9527778 L39.8760165,19.1962222 Z M33.5130945,8.80386667 L34.4692048,10.5604667 L34.4692048,10.5604667 L33.5130945,8.80386667 Z M4.12402292,24.8038889 L5.08012214,26.5604444 L5.08012214,26.5604444 L4.12402292,24.8038889 Z M10.4869338,35.1961111 L9.53083458,33.4395556 L9.53082347,33.4395556 L10.4869338,35.1961111 Z M33.2875653,8.92661111 L32.331455,7.17001111 L32.331455,7.17001111 L33.2875653,8.92661111 Z M10.7124296,8.9266 L9.7563193,10.6832 L9.7563193,10.6832 L10.7124296,8.9266 Z M33.2875653,35.0733333 L34.2436756,33.3167778 L34.2436756,33.3167778 L33.2875653,35.0733333 Z M10.7124296,35.0734444 L11.66854,36.83 L11.66854,36.83 L10.7124296,35.0734444 Z M19.8790235,4 L24.1209715,4 L24.1209715,0 L19.8790235,0 L19.8790235,4 Z M24.1209715,40 L19.8790235,40 L19.8790235,44 L24.1209715,44 L24.1209715,40 Z M19.8790235,40 C18.5281816,40 17.6368414,38.9953333 17.6368414,38 L13.6373095,38 C13.6373095,41.423 16.5443026,44 19.8790235,44 L19.8790235,40 Z M26.3631535,38 C26.3631535,38.9953333 25.4718134,40 24.1209715,40 L24.1209715,44 C27.4556923,44 30.3626854,41.423 30.3626854,38 L26.3631535,38 Z M24.1209715,4 C25.4718134,4 26.3631535,5.00467778 26.3631535,6 L30.3626854,6 C30.3626854,2.57704444 27.4556923,0 24.1209715,0 L24.1209715,4 Z M19.8790235,0 C16.5443026,0 13.6373095,2.57704444 13.6373095,6 L17.6368414,6 C17.6368414,5.00467778 18.5281816,4 19.8790235,4 L19.8790235,0 Z M39.7232566,29.2235556 L37.6022826,32.6875556 L41.0131056,34.7764444 L43.1340796,31.3123333 L39.7232566,29.2235556 Z M4.27679393,14.7764444 L6.39775682,11.3123333 L2.98690045,9.2235 L0.865933123,12.6875556 L4.27679393,14.7764444 Z M6.39775682,11.3123333 C6.98642126,10.3509222 8.39175678,9.9403 9.53083458,10.5604333 L11.4430108,7.04723333 C8.52433016,5.45822222 4.74099516,6.35861111 2.98690045,9.2235 L6.39775682,11.3123333 Z M5.08012214,17.4395556 C4.00343704,16.8533333 3.73407967,15.6628889 4.27679393,14.7764444 L0.865933123,12.6875556 C-0.93411843,15.6275556 0.186820381,19.3297778 3.1679126,20.9527778 L5.08012214,17.4395556 Z M37.6022826,32.6875556 C37.0135737,33.649 35.6082937,34.0596667 34.4692048,33.4395556 L32.5569842,36.9527778 C35.4756426,38.5417778 39.2589776,37.6413333 41.0131056,34.7764444 L37.6022826,32.6875556 Z M43.1340796,31.3123333 C44.9340912,28.3724444 43.8132223,24.6702222 40.8321268,23.0472222 L38.9199061,26.5604444 C39.9965579,27.1465556 40.2659708,28.3371111 39.7232566,29.2235556 L43.1340796,31.3123333 Z M6.39775682,32.6876667 L4.27678282,29.2235556 L0.865930901,31.3124444 L2.98690045,34.7764444 L6.39775682,32.6876667 Z M37.6022826,11.3124444 L39.7232566,14.7764444 L43.1340796,12.6876667 L41.0131056,9.22353333 L37.6022826,11.3124444 Z M39.7232566,14.7764444 C40.2658597,15.6628889 39.9965579,16.8534444 38.9199061,17.4395556 L40.8321268,20.9527778 C43.8132223,19.3297778 44.9340912,15.6275556 43.1340796,12.6876667 L39.7232566,14.7764444 Z M34.4692048,10.5604667 C35.6081826,9.94033333 37.0135737,10.3509444 37.6022826,11.3124444 L41.0131056,9.22353333 C39.2589776,6.35864444 35.4756426,5.45825556 32.5569842,7.04726667 L34.4692048,10.5604667 Z M4.27678282,29.2235556 C3.73407967,28.3371111 4.00343704,27.1466667 5.08012214,26.5604444 L3.1679126,23.0472222 C0.186817048,24.6702222 -0.934120652,28.3724444 0.865930901,31.3124444 L4.27678282,29.2235556 Z M2.98690045,34.7764444 C4.74099516,37.6414444 8.52433016,38.5417778 11.4430108,36.9527778 L9.53082347,33.4395556 C8.39175678,34.0596667 6.98642126,33.6491111 6.39775682,32.6876667 L2.98690045,34.7764444 Z M34.2436756,10.6832222 L34.4692048,10.5604667 L32.5569842,7.04725556 L32.331455,7.17001111 L34.2436756,10.6832222 Z M9.53082347,10.5604333 L9.7563193,10.6832 L11.66854,7.17 L11.4430108,7.04723333 L9.53082347,10.5604333 Z M34.4692048,33.4395556 L34.2436756,33.3167778 L32.331455,36.83 L32.5569842,36.9527778 L34.4692048,33.4395556 Z M9.75633041,33.3167778 L9.53083458,33.4395556 L11.4430108,36.9527778 L11.66854,36.83 L9.75633041,33.3167778 Z M3.1679126,20.9527778 C3.99752662,21.4044444 3.99753773,22.5955556 3.1679126,23.0472222 L5.08012214,26.5604444 C8.69283266,24.5936667 8.69284377,19.4063333 5.08012214,17.4395556 L3.1679126,20.9527778 Z M11.66854,36.83 C12.5561027,36.3467778 13.6373095,36.9893333 13.6373095,38 L17.6368414,38 C17.6368414,33.9545556 13.3090146,31.3826667 9.7563193,33.3167778 L11.66854,36.83 Z M30.3626854,38 C30.3626854,36.9893333 31.4438922,36.3467778 32.331455,36.83 L34.2436756,33.3167778 C30.6909803,31.3826667 26.3631535,33.9545556 26.3631535,38 L30.3626854,38 Z M40.8321268,23.0472222 C40.0024461,22.5955556 40.0024461,21.4044444 40.8321268,20.9527778 L38.9199061,17.4395556 C35.3072178,19.4064444 35.3072178,24.5935556 38.9199061,26.5604444 L40.8321268,23.0472222 Z M9.7563193,10.6832 C13.3090146,12.6173333 17.6368414,10.0454 17.6368414,6 L13.6373095,6 C13.6373095,7.01065556 12.5561027,7.6532 11.66854,7.17 L9.7563193,10.6832 Z M32.331455,7.17001111 C31.4438922,7.65322222 30.3626854,7.01067778 30.3626854,6 L26.3631535,6 C26.3631535,10.0454111 30.6909803,12.6173333 34.2436756,10.6832111 L32.331455,7.17001111 Z M26.666118,22 C26.666118,24.5773333 24.5770292,26.6666667 21.9999975,26.6666667 L21.9999975,30.6666667 C26.7858818,30.6666667 30.66565,26.7864444 30.66565,22 L26.666118,22 Z M21.9999975,26.6666667 C19.4229657,26.6666667 17.3338769,24.5773333 17.3338769,22 L13.334345,22 C13.334345,26.7864444 17.2141131,30.6666667 21.9999975,30.6666667 L21.9999975,26.6666667 Z M17.3338769,22 C17.3338769,19.4226667 19.4229657,17.3333333 21.9999975,17.3333333 L21.9999975,13.3333333 C17.2141131,13.3333333 13.334345,17.2135556 13.334345,22 L17.3338769,22 Z M21.9999975,17.3333333 C24.5770292,17.3333333 26.666118,19.4226667 26.666118,22 L30.66565,22 C30.66565,17.2135556 26.7858818,13.3333333 21.9999975,13.3333333 L21.9999975,17.3333333 Z" id="形状"></path>
                    </g>
                </g>
            </g>
        </g>
    </g>
</svg>