<?xml version="1.0" encoding="UTF-8"?>
<svg width="44px" height="44px" viewBox="0 0 44 44" version="1.1" xmlns="http://www.w3.org/2000/svg" xmlns:xlink="http://www.w3.org/1999/xlink">
    <g id="B端移动端v1.0" stroke="none" stroke-width="1" fill="none" fill-rule="evenodd">
        <g id="chat2左滑块" transform="translate(-166.000000, -1485.000000)" fill="#3B59FE">
            <g id="标签栏" transform="translate(0.000000, 1458.000000)">
                <g id="chat" transform="translate(166.000000, 27.000000)">
                    <path d="M44,22 C44,9.84973 34.15027,0 22,0 C9.84973,0 0,9.84973 0,22 L0,34.22221 C0,39.62233 0,44 9.777779,44 L22,44 C34.15027,44 44,34.15027 44,22 Z M22,24.2 C23.21506,24.2 24.2,23.21506 24.2,22 C24.2,20.78494 23.21506,19.8 22,19.8 C20.78494,19.8 19.8,20.78494 19.8,22 C19.8,23.21506 20.78494,24.2 22,24.2 Z M33,22 C33,23.21506 32.01506,24.2 30.8,24.2 C29.58494,24.2 28.6,23.21506 28.6,22 C28.6,20.78494 29.58494,19.8 30.8,19.8 C32.01506,19.8 33,20.78494 33,22 Z M13.2,24.2 C14.41506,24.2 15.4,23.21506 15.4,22 C15.4,20.78494 14.41506,19.8 13.2,19.8 C11.98494,19.8 11,20.78494 11,22 C11,23.21506 11.98494,24.2 13.2,24.2 Z" id="形状"></path>
                </g>
            </g>
        </g>
    </g>
</svg>