<?xml version="1.0" encoding="UTF-8"?>
<svg width="44px" height="44px" viewBox="0 0 44 44" version="1.1" xmlns="http://www.w3.org/2000/svg" xmlns:xlink="http://www.w3.org/1999/xlink">
    <g id="B端移动端v1.0" stroke="none" stroke-width="1" fill="none" fill-rule="evenodd">
        <g id="Setting" transform="translate(-166.000000, -1485.000000)" fill="#000000" fill-rule="nonzero">
            <g id="标签栏" transform="translate(0.000000, 1458.000000)">
                <g id="Group-150" transform="translate(166.000000, 27.000000)">
                    <path d="M11.0000079,41.799994 L11.0000079,43.9999936 L11.0000079,41.799994 Z M4.4000108,32.9999968 L4.4000108,21.9999968 L1.27101348e-05,21.9999968 L1.27101348e-05,32.9999968 L4.4000108,32.9999968 Z M22.0000079,39.5999943 L11.0000079,39.5999943 L11.0000079,43.9999936 L22.0000079,43.9999936 L22.0000079,39.5999943 Z M6.33836316e-06,32.9999952 C6.33836316e-06,34.1799651 -0.00352383233,35.4885249 0.156038843,36.7102947 C0.318185372,37.9517545 0.666911621,39.2814343 1.48986306,40.4728442 C3.22513431,42.9850238 6.39188994,43.9999952 11.0000063,43.9999952 L11.0000063,39.5999943 C6.80812976,39.5999943 5.57488729,38.6449744 5.1101595,37.9722145 C4.83311362,37.5711546 4.6318357,37.0045447 4.51898675,36.1404948 C4.4035528,35.2565349 4.4000108,34.2500351 4.4000108,32.9999952 L6.33836316e-06,32.9999952 Z M39.5999956,21.9999968 C39.5999956,31.7202554 31.720259,39.5999943 22.0000032,39.5999943 L22.0000032,43.9999968 C34.1502679,43.9999968 44.0000032,34.1502651 44.0000032,21.9999968 L39.5999956,21.9999968 Z M22.0000032,4.39999936 C31.720259,4.39999936 39.5999956,12.2797382 39.5999956,22 L44.0000032,22 C44.0000032,9.84973958 34.1502679,0 22.0000032,0 L22.0000032,4.39999936 Z M22.0000127,0 C9.84974944,0 1.27101348e-05,9.84973958 1.27101348e-05,22 L4.4000108,22 C4.4000108,12.2797382 12.2797474,4.39999936 22.0000127,4.39999936 L22.0000127,0 Z" id="形状" fill-opacity="0.195722247"></path>
                    <ellipse id="椭圆形" fill-opacity="0.20350743" cx="22.0000032" cy="21.9999968" rx="2.19999905" ry="2.19999968"></ellipse>
                    <ellipse id="椭圆形" fill-opacity="0.20350743" cx="30.7999994" cy="21.9999968" rx="2.19999905" ry="2.19999968"></ellipse>
                    <ellipse id="椭圆形" fill-opacity="0.20350743" cx="13.200007" cy="21.9999968" rx="2.19999905" ry="2.19999968"></ellipse>
                </g>
            </g>
        </g>
    </g>
</svg>