<?xml version="1.0" encoding="UTF-8"?>
<svg width="44px" height="44px" viewBox="0 0 44 44" version="1.1" xmlns="http://www.w3.org/2000/svg" xmlns:xlink="http://www.w3.org/1999/xlink">
    <g id="B端移动端v1.0" stroke="none" stroke-width="1" fill="none" fill-rule="evenodd">
        <g id="Setting" transform="translate(-541.000000, -1485.000000)" fill="#3B59FE">
            <g id="标签栏" transform="translate(0.000000, 1458.000000)">
                <g id="编组-5" transform="translate(375.000000, 0.000000)">
                    <g id="setting" transform="translate(166.000000, 27.000000)">
                        <path d="M19.6667865,0 L24.333234,0 C26.9106579,0 28.9999259,1.96995333 28.9999259,4.4 C28.9999259,7.18084889 31.9753057,8.94881778 34.4177962,7.61928444 L34.6659074,7.48425333 C36.8979311,6.26921778 39.7520663,6.99028 41.0407783,9.09475111 L43.3740021,12.9052733 C44.662714,15.0097689 43.8978468,17.7007111 41.6658232,18.9158444 C39.2223549,20.2458667 39.2223549,23.7541333 41.6658232,25.0841556 C43.8978468,26.2992889 44.662714,28.9901333 43.3740021,31.0948 L41.0407783,34.9052 C39.7520663,37.0096222 36.8979311,37.7307333 34.6659074,36.5158444 L34.4177962,36.3806667 C31.9753057,35.0511333 28.9999259,36.8192 28.9999259,39.6 C28.9999259,42.0300222 26.9106579,44 24.333234,44 L19.6667865,44 C17.0893381,44 14.9999723,42.0300222 14.9999723,39.6 C14.9999723,36.8192 12.0246415,35.0511333 9.58222429,36.3806667 L9.33413746,36.5158444 C7.10211377,37.7307333 4.24800301,37.0098667 2.95933994,34.9052 L0.625993959,31.0948 C-0.66266911,28.9903778 0.102075837,26.2992889 2.33412397,25.0841556 C4.77769002,23.7541333 4.77769002,20.2458667 2.33412397,18.9158444 C0.102075837,17.7007111 -0.66266911,15.00972 0.625993959,12.9052489 L2.95933994,9.09472667 C4.24800301,6.99023111 7.10211377,6.26919333 9.33416191,7.48420444 L9.58222429,7.61926 C12.0246415,8.94879333 14.9999723,7.18082444 14.9999723,4.4 C14.9999723,1.96995333 17.0893381,0 19.6667865,0 Z M22.0000102,29.3333333 C26.0502129,29.3333333 29.3333484,26.0502 29.3333484,22 C29.3333484,17.9498 26.0502129,14.6666667 22.0000102,14.6666667 C17.950052,14.6666667 14.6666965,17.9498 14.6666965,22 C14.6666965,26.0502 17.950052,29.3333333 22.0000102,29.3333333 Z" id="形状"></path>
                    </g>
                </g>
            </g>
        </g>
    </g>
</svg>